<?xml version="1.0" encoding="UTF-8"?>
<svg id="Layer_2" data-name="Layer 2" xmlns="http://www.w3.org/2000/svg" xmlns:xlink="http://www.w3.org/1999/xlink" viewBox="0 0 364.86 320.33">
  <defs>
    <style>
      .cls-1 {
        stroke: url(#Degradado_sin_nombre_2600);
      }

      .cls-1, .cls-2, .cls-3, .cls-4, .cls-5, .cls-6, .cls-7, .cls-8, .cls-9, .cls-10, .cls-11, .cls-12, .cls-13, .cls-14, .cls-15, .cls-16, .cls-17, .cls-18, .cls-19, .cls-20, .cls-21, .cls-22, .cls-23, .cls-24, .cls-25, .cls-26, .cls-27, .cls-28, .cls-29, .cls-30, .cls-31, .cls-32, .cls-33, .cls-34, .cls-35, .cls-36, .cls-37, .cls-38 {
        fill: none;
        stroke-miterlimit: 10;
        stroke-width: .81px;
      }

      .cls-2 {
        stroke: url(#Degradado_sin_nombre_2576);
      }

      .cls-3 {
        stroke: url(#Degradado_sin_nombre_2596);
      }

      .cls-4 {
        stroke: url(#Degradado_sin_nombre_2608);
      }

      .cls-5 {
        stroke: url(#Degradado_sin_nombre_2588);
      }

      .cls-6 {
        stroke: url(#Degradado_sin_nombre_2602);
      }

      .cls-7 {
        stroke: url(#Degradado_sin_nombre_2589);
      }

      .cls-8 {
        stroke: url(#Degradado_sin_nombre_2577);
      }

      .cls-9 {
        stroke: url(#Degradado_sin_nombre_2599);
      }

      .cls-10 {
        stroke: url(#Degradado_sin_nombre_2573);
      }

      .cls-11 {
        stroke: url(#Degradado_sin_nombre_2583);
      }

      .cls-12 {
        stroke: url(#Degradado_sin_nombre_2594);
      }

      .cls-13 {
        stroke: url(#Degradado_sin_nombre_2607);
      }

      .cls-14 {
        stroke: url(#Degradado_sin_nombre_2572);
      }

      .cls-15 {
        stroke: url(#Degradado_sin_nombre_2587);
      }

      .cls-16 {
        stroke: url(#Degradado_sin_nombre_2597);
      }

      .cls-17 {
        stroke: url(#Degradado_sin_nombre_2601);
      }

      .cls-18 {
        stroke: url(#Degradado_sin_nombre_2605);
      }

      .cls-19 {
        stroke: url(#Degradado_sin_nombre_2574);
      }

      .cls-20 {
        stroke: url(#Degradado_sin_nombre_2592);
      }

      .cls-39 {
        fill: url(#Degradado_sin_nombre_2569-2);
        filter: url(#drop-shadow-3);
      }

      .cls-21 {
        stroke: url(#Degradado_sin_nombre_2580);
      }

      .cls-22 {
        stroke: url(#Degradado_sin_nombre_2590);
      }

      .cls-23 {
        stroke: url(#Degradado_sin_nombre_2575);
      }

      .cls-24 {
        stroke: url(#Degradado_sin_nombre_2606);
      }

      .cls-25 {
        stroke: url(#Degradado_sin_nombre_2578);
      }

      .cls-26 {
        stroke: url(#Degradado_sin_nombre_2582);
      }

      .cls-27 {
        stroke: url(#Degradado_sin_nombre_2598);
      }

      .cls-28 {
        stroke: url(#Degradado_sin_nombre_2591);
      }

      .cls-29 {
        stroke: url(#Degradado_sin_nombre_2571);
      }

      .cls-30 {
        stroke: url(#Degradado_sin_nombre_2603);
      }

      .cls-31 {
        stroke: url(#Degradado_sin_nombre_2579);
      }

      .cls-32 {
        stroke: url(#Degradado_sin_nombre_2584);
      }

      .cls-33 {
        stroke: url(#Degradado_sin_nombre_2581);
      }

      .cls-34 {
        stroke: url(#Degradado_sin_nombre_2585);
      }

      .cls-40 {
        fill: url(#Degradado_sin_nombre_2570);
        filter: url(#drop-shadow-1);
      }

      .cls-41 {
        fill: url(#Degradado_sin_nombre_2569);
        filter: url(#drop-shadow-2);
      }

      .cls-35 {
        stroke: url(#Degradado_sin_nombre_2586);
      }

      .cls-36 {
        stroke: url(#Degradado_sin_nombre_2604);
      }

      .cls-37 {
        stroke: url(#Degradado_sin_nombre_2595);
      }

      .cls-38 {
        stroke: url(#Degradado_sin_nombre_2593);
      }
    </style>
    <linearGradient id="Degradado_sin_nombre_2608" data-name="Degradado sin nombre 2608" x1="-3.79" y1="184.01" x2="359.02" y2="222.76" gradientTransform="translate(-15.77 -30.77) rotate(-6.1)" gradientUnits="userSpaceOnUse">
      <stop offset="0" stop-color="#00d3ff"/>
      <stop offset=".01" stop-color="#00cafe" stop-opacity=".95"/>
      <stop offset=".12" stop-color="#0085f8" stop-opacity=".55"/>
      <stop offset=".2" stop-color="#0052f4" stop-opacity=".25"/>
      <stop offset=".26" stop-color="#0033f1" stop-opacity=".07"/>
      <stop offset=".29" stop-color="#0027f1" stop-opacity="0"/>
      <stop offset=".29" stop-color="#0026f0" stop-opacity=".03"/>
      <stop offset=".31" stop-color="#001ff0" stop-opacity=".26"/>
      <stop offset=".34" stop-color="#0019f0" stop-opacity=".46"/>
      <stop offset=".36" stop-color="#0014ef" stop-opacity=".62"/>
      <stop offset=".39" stop-color="#0010ef" stop-opacity=".76"/>
      <stop offset=".41" stop-color="#000def" stop-opacity=".87"/>
      <stop offset=".44" stop-color="#000bef" stop-opacity=".94"/>
      <stop offset=".46" stop-color="#000aef" stop-opacity=".99"/>
      <stop offset=".5" stop-color="#000aef"/>
      <stop offset="1" stop-color="#aa0aff"/>
    </linearGradient>
    <linearGradient id="Degradado_sin_nombre_2607" data-name="Degradado sin nombre 2607" x1="26.42" y1="165.22" x2="395.93" y2="174.13" gradientTransform="translate(-25.74 1.23) rotate(-2.75) scale(.95) skewX(-.38)" gradientUnits="userSpaceOnUse">
      <stop offset="0" stop-color="#09c8ff"/>
      <stop offset=".1" stop-color="#0789f9" stop-opacity=".63"/>
      <stop offset=".19" stop-color="#0553f4" stop-opacity=".32"/>
      <stop offset=".26" stop-color="#0432f2" stop-opacity=".13"/>
      <stop offset=".29" stop-color="#0426f1" stop-opacity=".06"/>
      <stop offset=".31" stop-color="#031ff0" stop-opacity=".26"/>
      <stop offset=".33" stop-color="#021af0" stop-opacity=".46"/>
      <stop offset=".36" stop-color="#0115ef" stop-opacity=".62"/>
      <stop offset=".38" stop-color="#0111ef" stop-opacity=".76"/>
      <stop offset=".41" stop-color="#000def" stop-opacity=".87"/>
      <stop offset=".44" stop-color="#000bef" stop-opacity=".94"/>
      <stop offset=".46" stop-color="#000aef" stop-opacity=".99"/>
      <stop offset=".5" stop-color="#000aef"/>
      <stop offset=".5" stop-color="#030aef"/>
      <stop offset=".56" stop-color="#070aef" stop-opacity="1"/>
      <stop offset=".62" stop-color="#130af0" stop-opacity=".99"/>
      <stop offset=".67" stop-color="#280bf2" stop-opacity=".97"/>
      <stop offset=".73" stop-color="#440cf6" stop-opacity=".95"/>
      <stop offset=".74" stop-color="#4e0df7" stop-opacity=".94"/>
      <stop offset=".82" stop-color="#640ff9" stop-opacity=".96"/>
      <stop offset=".99" stop-color="#9e14fe" stop-opacity="1"/>
      <stop offset="1" stop-color="#a115ff"/>
    </linearGradient>
    <linearGradient id="Degradado_sin_nombre_2606" data-name="Degradado sin nombre 2606" x1="55.09" y1="139.7" x2="427.98" y2="117.98" gradientTransform="translate(-33.97 32.37) rotate(.95) scale(.9) skewX(-.79)" gradientUnits="userSpaceOnUse">
      <stop offset="0" stop-color="#12bdff"/>
      <stop offset=".08" stop-color="#0e8cfa" stop-opacity=".72"/>
      <stop offset=".18" stop-color="#0b54f6" stop-opacity=".39"/>
      <stop offset=".25" stop-color="#0831f3" stop-opacity=".19"/>
      <stop offset=".29" stop-color="#0824f2" stop-opacity=".11"/>
      <stop offset=".3" stop-color="#061ff1" stop-opacity=".26"/>
      <stop offset=".33" stop-color="#041af0" stop-opacity=".46"/>
      <stop offset=".35" stop-color="#0315f0" stop-opacity=".62"/>
      <stop offset=".38" stop-color="#0211ef" stop-opacity=".76"/>
      <stop offset=".41" stop-color="#010eef" stop-opacity=".87"/>
      <stop offset=".43" stop-color="#000cef" stop-opacity=".94"/>
      <stop offset=".46" stop-color="#000bef" stop-opacity=".99"/>
      <stop offset=".5" stop-color="#000bef"/>
      <stop offset=".5" stop-color="#030bef"/>
      <stop offset=".57" stop-color="#070bef" stop-opacity=".99"/>
      <stop offset=".62" stop-color="#140cf0" stop-opacity=".97"/>
      <stop offset=".68" stop-color="#2a0df3" stop-opacity=".94"/>
      <stop offset=".74" stop-color="#490ff6" stop-opacity=".89"/>
      <stop offset=".74" stop-color="#4a10f7" stop-opacity=".89"/>
      <stop offset=".83" stop-color="#5f14f9" stop-opacity=".92"/>
      <stop offset="1" stop-color="#961ffe" stop-opacity="1"/>
      <stop offset="1" stop-color="#9720ff"/>
    </linearGradient>
    <linearGradient id="Degradado_sin_nombre_2605" data-name="Degradado sin nombre 2605" x1="84.17" y1="105.55" x2="456.73" y2="52.87" gradientTransform="translate(-43.94 63.51) rotate(5.04) scale(.86) skewX(-1.23)" gradientUnits="userSpaceOnUse">
      <stop offset="0" stop-color="#1bb1ff"/>
      <stop offset=".06" stop-color="#1790fc" stop-opacity=".81"/>
      <stop offset=".17" stop-color="#1156f6" stop-opacity=".47"/>
      <stop offset=".25" stop-color="#0d31f3" stop-opacity=".25"/>
      <stop offset=".29" stop-color="#0c23f2" stop-opacity=".17"/>
      <stop offset=".3" stop-color="#0a20f1" stop-opacity=".26"/>
      <stop offset=".32" stop-color="#081af0" stop-opacity=".46"/>
      <stop offset=".35" stop-color="#0515f0" stop-opacity=".62"/>
      <stop offset=".38" stop-color="#0411ef" stop-opacity=".76"/>
      <stop offset=".4" stop-color="#020eef" stop-opacity=".87"/>
      <stop offset=".43" stop-color="#010cef" stop-opacity=".94"/>
      <stop offset=".46" stop-color="#010bef" stop-opacity=".99"/>
      <stop offset=".5" stop-color="#010bef"/>
      <stop offset=".5" stop-color="#020bef"/>
      <stop offset=".57" stop-color="#060bef" stop-opacity=".99"/>
      <stop offset=".63" stop-color="#140cf0" stop-opacity=".95"/>
      <stop offset=".69" stop-color="#2c0ff3" stop-opacity=".9"/>
      <stop offset=".74" stop-color="#4512f6" stop-opacity=".83"/>
      <stop offset=".83" stop-color="#5919f8" stop-opacity=".88"/>
      <stop offset="1" stop-color="#8e2cff"/>
    </linearGradient>
    <linearGradient id="Degradado_sin_nombre_2604" data-name="Degradado sin nombre 2604" x1="108.26" y1="62.31" x2="476.11" y2="-21.02" gradientTransform="translate(-53.04 94.65) rotate(9.52) scale(.82) skewX(-1.66)" gradientUnits="userSpaceOnUse">
      <stop offset="0" stop-color="#24a6ff"/>
      <stop offset=".03" stop-color="#2196fd" stop-opacity=".91"/>
      <stop offset=".16" stop-color="#1857f7" stop-opacity=".54"/>
      <stop offset=".25" stop-color="#1230f3" stop-opacity=".31"/>
      <stop offset=".29" stop-color="#1021f2" stop-opacity=".22"/>
      <stop offset=".29" stop-color="#0f1ff1" stop-opacity=".26"/>
      <stop offset=".32" stop-color="#0b1af1" stop-opacity=".46"/>
      <stop offset=".34" stop-color="#0816f0" stop-opacity=".62"/>
      <stop offset=".37" stop-color="#0512ef" stop-opacity=".76"/>
      <stop offset=".4" stop-color="#030fef" stop-opacity=".87"/>
      <stop offset=".43" stop-color="#020def" stop-opacity=".94"/>
      <stop offset=".46" stop-color="#010cef" stop-opacity=".99"/>
      <stop offset=".5" stop-color="#010cef"/>
      <stop offset=".5" stop-color="#020cef"/>
      <stop offset=".57" stop-color="#060cef" stop-opacity=".98"/>
      <stop offset=".64" stop-color="#160ef1" stop-opacity=".93"/>
      <stop offset=".71" stop-color="#2f12f4" stop-opacity=".84"/>
      <stop offset=".74" stop-color="#4115f6" stop-opacity=".78"/>
      <stop offset=".83" stop-color="#541ef8" stop-opacity=".84"/>
      <stop offset="1" stop-color="#8437ff"/>
    </linearGradient>
    <linearGradient id="Degradado_sin_nombre_2603" data-name="Degradado sin nombre 2603" x1="126.63" y1="10.7" x2="484.81" y2="-102.08" gradientTransform="translate(-63 125.79) rotate(14.39) scale(.79 .8) skewX(-2.09)" gradientUnits="userSpaceOnUse">
      <stop offset="0" stop-color="#2d9bff"/>
      <stop offset=".14" stop-color="#1f5af8" stop-opacity=".62"/>
      <stop offset=".24" stop-color="#1630f3" stop-opacity=".37"/>
      <stop offset=".29" stop-color="#1320f2" stop-opacity=".28"/>
      <stop offset=".31" stop-color="#0e1bf1" stop-opacity=".46"/>
      <stop offset=".34" stop-color="#0a16f0" stop-opacity=".62"/>
      <stop offset=".37" stop-color="#0712f0" stop-opacity=".76"/>
      <stop offset=".4" stop-color="#040fef" stop-opacity=".87"/>
      <stop offset=".43" stop-color="#020def" stop-opacity=".94"/>
      <stop offset=".46" stop-color="#010cef" stop-opacity=".99"/>
      <stop offset=".5" stop-color="#010cef"/>
      <stop offset=".5" stop-color="#020cef"/>
      <stop offset=".57" stop-color="#050cef" stop-opacity=".98"/>
      <stop offset=".63" stop-color="#100ff0" stop-opacity=".93"/>
      <stop offset=".69" stop-color="#2212f2" stop-opacity=".84"/>
      <stop offset=".74" stop-color="#3c18f6" stop-opacity=".72"/>
      <stop offset=".83" stop-color="#4e24f8" stop-opacity=".81"/>
      <stop offset="1" stop-color="#7b42ff"/>
    </linearGradient>
    <linearGradient id="Degradado_sin_nombre_2602" data-name="Degradado sin nombre 2602" x1="134.27" y1="-47.33" x2="477.41" y2="-187.31" gradientTransform="translate(-72.11 157.79) rotate(19.64) scale(.77 .78) skewX(-2.47)" gradientUnits="userSpaceOnUse">
      <stop offset="0" stop-color="#3690ff"/>
      <stop offset=".12" stop-color="#285df9" stop-opacity=".7"/>
      <stop offset=".23" stop-color="#1b30f4" stop-opacity=".44"/>
      <stop offset=".29" stop-color="#171ff3" stop-opacity=".33"/>
      <stop offset=".31" stop-color="#121bf2" stop-opacity=".46"/>
      <stop offset=".33" stop-color="#0d16f1" stop-opacity=".62"/>
      <stop offset=".36" stop-color="#0812f0" stop-opacity=".76"/>
      <stop offset=".39" stop-color="#050fef" stop-opacity=".86"/>
      <stop offset=".42" stop-color="#020def" stop-opacity=".94"/>
      <stop offset=".46" stop-color="#010cef" stop-opacity=".99"/>
      <stop offset=".5" stop-color="#010cef"/>
      <stop offset=".5" stop-color="#020cef"/>
      <stop offset=".56" stop-color="#040cef" stop-opacity=".98"/>
      <stop offset=".61" stop-color="#0c0ff0" stop-opacity=".93"/>
      <stop offset=".67" stop-color="#1a12f2" stop-opacity=".84"/>
      <stop offset=".72" stop-color="#2d18f4" stop-opacity=".72"/>
      <stop offset=".74" stop-color="#371bf6" stop-opacity=".67"/>
      <stop offset=".82" stop-color="#4628f8" stop-opacity=".75"/>
      <stop offset=".98" stop-color="#6d49fe" stop-opacity=".98"/>
      <stop offset="1" stop-color="#714dff"/>
    </linearGradient>
    <linearGradient id="Degradado_sin_nombre_2601" data-name="Degradado sin nombre 2601" x1="131.3" y1="-108.68" x2="453.89" y2="-272.39" gradientTransform="translate(-82.07 188.93) rotate(25.2) scale(.75 .77) skewX(-2.78)" gradientUnits="userSpaceOnUse">
      <stop offset="0" stop-color="#3f85ff"/>
      <stop offset=".09" stop-color="#3260fa" stop-opacity=".79"/>
      <stop offset=".23" stop-color="#2130f5" stop-opacity=".5"/>
      <stop offset=".29" stop-color="#1b1df3" stop-opacity=".39"/>
      <stop offset=".3" stop-color="#181bf2" stop-opacity=".45"/>
      <stop offset=".33" stop-color="#1116f1" stop-opacity=".62"/>
      <stop offset=".36" stop-color="#0b13f0" stop-opacity=".76"/>
      <stop offset=".39" stop-color="#0610ef" stop-opacity=".86"/>
      <stop offset=".42" stop-color="#030eef" stop-opacity=".94"/>
      <stop offset=".46" stop-color="#010def" stop-opacity=".99"/>
      <stop offset=".5" stop-color="#010def"/>
      <stop offset=".5" stop-color="#020def"/>
      <stop offset=".56" stop-color="#040def" stop-opacity=".98"/>
      <stop offset=".61" stop-color="#0a0ff0" stop-opacity=".93"/>
      <stop offset=".66" stop-color="#1513f1" stop-opacity=".85"/>
      <stop offset=".7" stop-color="#2418f3" stop-opacity=".73"/>
      <stop offset=".74" stop-color="#331df5" stop-opacity=".61"/>
      <stop offset=".81" stop-color="#3f2af7" stop-opacity=".7"/>
      <stop offset=".95" stop-color="#5d4cfd" stop-opacity=".92"/>
      <stop offset="1" stop-color="#6858ff"/>
    </linearGradient>
    <linearGradient id="Degradado_sin_nombre_2600" data-name="Degradado sin nombre 2600" x1="114.92" y1="-170.33" x2="411.91" y2="-353.19" gradientTransform="translate(-92.04 220.07) rotate(30.99) scale(.74 .77) skewX(-2.99)" gradientUnits="userSpaceOnUse">
      <stop offset="0" stop-color="#487aff"/>
      <stop offset=".06" stop-color="#3f65fc" stop-opacity=".88"/>
      <stop offset=".22" stop-color="#2830f5" stop-opacity=".57"/>
      <stop offset=".29" stop-color="#1f1cf3" stop-opacity=".44"/>
      <stop offset=".29" stop-color="#1e1bf2" stop-opacity=".45"/>
      <stop offset=".32" stop-color="#1517f1" stop-opacity=".62"/>
      <stop offset=".35" stop-color="#0e13f0" stop-opacity=".76"/>
      <stop offset=".38" stop-color="#0810ef" stop-opacity=".86"/>
      <stop offset=".42" stop-color="#040eef" stop-opacity=".94"/>
      <stop offset=".45" stop-color="#010def" stop-opacity=".99"/>
      <stop offset=".5" stop-color="#010def"/>
      <stop offset=".5" stop-color="#020def"/>
      <stop offset=".55" stop-color="#030def" stop-opacity=".98"/>
      <stop offset=".6" stop-color="#080fef" stop-opacity=".93"/>
      <stop offset=".65" stop-color="#1013f1" stop-opacity=".85"/>
      <stop offset=".69" stop-color="#1c18f2" stop-opacity=".73"/>
      <stop offset=".74" stop-color="#2b1ef4" stop-opacity=".58"/>
      <stop offset=".74" stop-color="#2e20f5" stop-opacity=".56"/>
      <stop offset=".8" stop-color="#372df7" stop-opacity=".64"/>
      <stop offset=".93" stop-color="#504ffc" stop-opacity=".87"/>
      <stop offset="1" stop-color="#5e63ff"/>
    </linearGradient>
    <linearGradient id="Degradado_sin_nombre_2599" data-name="Degradado sin nombre 2599" x1="84.45" y1="-227.35" x2="351.76" y2="-423.98" gradientTransform="translate(-101.14 251.21) rotate(36.9) scale(.73 .77) skewX(-3.05)" gradientUnits="userSpaceOnUse">
      <stop offset="0" stop-color="#516eff"/>
      <stop offset=".01" stop-color="#4e6afe" stop-opacity=".98"/>
      <stop offset=".2" stop-color="#2f31f6" stop-opacity=".64"/>
      <stop offset=".29" stop-color="#231bf3" stop-opacity=".5"/>
      <stop offset=".31" stop-color="#1a17f2" stop-opacity=".62"/>
      <stop offset=".35" stop-color="#1114f1" stop-opacity=".76"/>
      <stop offset=".38" stop-color="#0a11f0" stop-opacity=".86"/>
      <stop offset=".41" stop-color="#050ff0" stop-opacity=".94"/>
      <stop offset=".45" stop-color="#020ef0" stop-opacity=".99"/>
      <stop offset=".5" stop-color="#020ef0"/>
      <stop offset=".5" stop-color="#020ef0"/>
      <stop offset=".55" stop-color="#030ef0" stop-opacity=".98"/>
      <stop offset=".59" stop-color="#0710f0" stop-opacity=".93"/>
      <stop offset=".64" stop-color="#0d14f1" stop-opacity=".85"/>
      <stop offset=".68" stop-color="#1719f2" stop-opacity=".73"/>
      <stop offset=".72" stop-color="#231ff4" stop-opacity=".59"/>
      <stop offset=".74" stop-color="#2a23f5" stop-opacity=".5"/>
      <stop offset=".8" stop-color="#3130f6" stop-opacity=".59"/>
      <stop offset=".92" stop-color="#4553fb" stop-opacity=".82"/>
      <stop offset="1" stop-color="#556eff"/>
    </linearGradient>
    <linearGradient id="Degradado_sin_nombre_2598" data-name="Degradado sin nombre 2598" x1="44.57" y1="-276.25" x2="279.58" y2="-480.91" gradientTransform="translate(-111.11 281.48) rotate(42.81) scale(.74 .79) skewX(-2.99)" gradientUnits="userSpaceOnUse">
      <stop offset="0" stop-color="#5a63fe"/>
      <stop offset=".18" stop-color="#3832f7" stop-opacity=".71"/>
      <stop offset=".29" stop-color="#2719f4" stop-opacity=".56"/>
      <stop offset=".3" stop-color="#2117f3" stop-opacity=".62"/>
      <stop offset=".34" stop-color="#1614f2" stop-opacity=".76"/>
      <stop offset=".37" stop-color="#0d11f1" stop-opacity=".86"/>
      <stop offset=".41" stop-color="#070ff0" stop-opacity=".94"/>
      <stop offset=".45" stop-color="#030ef0" stop-opacity=".99"/>
      <stop offset=".5" stop-color="#020ef0"/>
      <stop offset=".5" stop-color="#010ef0"/>
      <stop offset=".55" stop-color="#020ef0" stop-opacity=".98"/>
      <stop offset=".59" stop-color="#0510f0" stop-opacity=".93"/>
      <stop offset=".63" stop-color="#0a14f1" stop-opacity=".85"/>
      <stop offset=".67" stop-color="#1219f2" stop-opacity=".74"/>
      <stop offset=".71" stop-color="#1b1ff3" stop-opacity=".59"/>
      <stop offset=".74" stop-color="#2526f5" stop-opacity=".44"/>
      <stop offset=".79" stop-color="#2b33f6" stop-opacity=".54"/>
      <stop offset=".9" stop-color="#3b56fa" stop-opacity=".77"/>
      <stop offset="1" stop-color="#4c7aff"/>
    </linearGradient>
    <linearGradient id="Degradado_sin_nombre_2597" data-name="Degradado sin nombre 2597" x1="-5.67" y1="-315.35" x2="196.12" y2="-522.61" gradientTransform="translate(-120.21 313.48) rotate(48.6) scale(.75 .81) skewX(-2.78)" gradientUnits="userSpaceOnUse">
      <stop offset="0" stop-color="#6358fe"/>
      <stop offset=".15" stop-color="#4334f8" stop-opacity=".78"/>
      <stop offset=".29" stop-color="#2b18f4" stop-opacity=".61"/>
      <stop offset=".29" stop-color="#2a17f3" stop-opacity=".62"/>
      <stop offset=".33" stop-color="#1b14f2" stop-opacity=".76"/>
      <stop offset=".36" stop-color="#1011f1" stop-opacity=".86"/>
      <stop offset=".4" stop-color="#080ff0" stop-opacity=".94"/>
      <stop offset=".45" stop-color="#030ef0" stop-opacity=".99"/>
      <stop offset=".5" stop-color="#020ef0"/>
      <stop offset=".5" stop-color="#010ef0"/>
      <stop offset=".55" stop-color="#010ef0" stop-opacity=".98"/>
      <stop offset=".58" stop-color="#0410f0" stop-opacity=".93"/>
      <stop offset=".62" stop-color="#0814f1" stop-opacity=".85"/>
      <stop offset=".66" stop-color="#0e19f2" stop-opacity=".74"/>
      <stop offset=".7" stop-color="#1520f3" stop-opacity=".59"/>
      <stop offset=".74" stop-color="#1f28f4" stop-opacity=".41"/>
      <stop offset=".74" stop-color="#2029f5" stop-opacity=".39"/>
      <stop offset=".79" stop-color="#2536f6" stop-opacity=".48"/>
      <stop offset=".89" stop-color="#325afa" stop-opacity=".72"/>
      <stop offset="1" stop-color="#4285ff"/>
    </linearGradient>
    <linearGradient id="Degradado_sin_nombre_2596" data-name="Degradado sin nombre 2596" x1="-58.46" y1="-342.59" x2="110.68" y2="-547.64" gradientTransform="translate(-130.17 344.62) rotate(54.16) scale(.77 .83) skewX(-2.48)" gradientUnits="userSpaceOnUse">
      <stop offset="0" stop-color="#6c4dfe"/>
      <stop offset=".11" stop-color="#5336f9" stop-opacity=".86"/>
      <stop offset=".29" stop-color="#2f16f4" stop-opacity=".67"/>
      <stop offset=".31" stop-color="#2314f2" stop-opacity=".75"/>
      <stop offset=".36" stop-color="#1411f1" stop-opacity=".86"/>
      <stop offset=".4" stop-color="#0a10f0" stop-opacity=".94"/>
      <stop offset=".44" stop-color="#040ff0" stop-opacity=".99"/>
      <stop offset=".5" stop-color="#020ff0"/>
      <stop offset=".5" stop-color="#010ff0"/>
      <stop offset=".54" stop-color="#010ff0" stop-opacity=".98"/>
      <stop offset=".58" stop-color="#0311f0" stop-opacity=".93"/>
      <stop offset=".62" stop-color="#0615f0" stop-opacity=".85"/>
      <stop offset=".66" stop-color="#0b1af1" stop-opacity=".74"/>
      <stop offset=".69" stop-color="#1120f2" stop-opacity=".59"/>
      <stop offset=".73" stop-color="#1827f3" stop-opacity=".41"/>
      <stop offset=".74" stop-color="#1c2bf4" stop-opacity=".33"/>
      <stop offset=".79" stop-color="#1f38f5" stop-opacity=".43"/>
      <stop offset=".88" stop-color="#2a5cf9" stop-opacity=".66"/>
      <stop offset="1" stop-color="#3990ff"/>
    </linearGradient>
    <linearGradient id="Degradado_sin_nombre_2595" data-name="Degradado sin nombre 2595" x1="-112.32" y1="-357.5" x2="26.11" y2="-556.63" gradientTransform="translate(-139.28 375.76) rotate(59.41) scale(.79 .87) skewX(-2.09)" gradientUnits="userSpaceOnUse">
      <stop offset="0" stop-color="#7542fe"/>
      <stop offset=".05" stop-color="#6839fc" stop-opacity=".95"/>
      <stop offset=".29" stop-color="#3315f5" stop-opacity=".72"/>
      <stop offset=".3" stop-color="#2e14f4" stop-opacity=".75"/>
      <stop offset=".34" stop-color="#1a12f2" stop-opacity=".86"/>
      <stop offset=".39" stop-color="#0c10f1" stop-opacity=".94"/>
      <stop offset=".44" stop-color="#040ff0" stop-opacity=".98"/>
      <stop offset=".5" stop-color="#020ff0"/>
      <stop offset=".5" stop-color="#010ff0"/>
      <stop offset=".54" stop-color="#010ff0" stop-opacity=".98"/>
      <stop offset=".58" stop-color="#0211f0" stop-opacity=".93"/>
      <stop offset=".61" stop-color="#0515f0" stop-opacity=".85"/>
      <stop offset=".65" stop-color="#081af1" stop-opacity=".74"/>
      <stop offset=".68" stop-color="#0d20f2" stop-opacity=".59"/>
      <stop offset=".72" stop-color="#1228f3" stop-opacity=".41"/>
      <stop offset=".74" stop-color="#172ef4" stop-opacity=".28"/>
      <stop offset=".78" stop-color="#1a3bf5" stop-opacity=".37"/>
      <stop offset=".87" stop-color="#215ff9" stop-opacity=".61"/>
      <stop offset="1" stop-color="#2e98fe" stop-opacity=".99"/>
      <stop offset="1" stop-color="#2f9bff"/>
    </linearGradient>
    <linearGradient id="Degradado_sin_nombre_2594" data-name="Degradado sin nombre 2594" x1="-163.3" y1="-363.11" x2="-52.81" y2="-553.79" gradientTransform="translate(-149.24 406.9) rotate(64.28) scale(.82 .91) skewX(-1.67)" gradientUnits="userSpaceOnUse">
      <stop offset="0" stop-color="#7e37fe"/>
      <stop offset="0" stop-color="#7b35fd" stop-opacity=".99"/>
      <stop offset=".29" stop-color="#3614f5" stop-opacity=".78"/>
      <stop offset=".32" stop-color="#2312f3" stop-opacity=".86"/>
      <stop offset=".38" stop-color="#1010f1" stop-opacity=".94"/>
      <stop offset=".43" stop-color="#050ff0" stop-opacity=".98"/>
      <stop offset=".5" stop-color="#020ff0"/>
      <stop offset=".5" stop-color="#010ff0"/>
      <stop offset=".54" stop-color="#010ff0" stop-opacity=".98"/>
      <stop offset=".58" stop-color="#0211f0" stop-opacity=".94"/>
      <stop offset=".61" stop-color="#0415f0" stop-opacity=".85"/>
      <stop offset=".64" stop-color="#061af1" stop-opacity=".74"/>
      <stop offset=".68" stop-color="#0920f2" stop-opacity=".59"/>
      <stop offset=".71" stop-color="#0d28f3" stop-opacity=".41"/>
      <stop offset=".74" stop-color="#1231f4" stop-opacity=".22"/>
      <stop offset=".78" stop-color="#143ef5" stop-opacity=".31"/>
      <stop offset=".86" stop-color="#1a62f8" stop-opacity=".55"/>
      <stop offset=".98" stop-color="#249bfe" stop-opacity=".93"/>
      <stop offset="1" stop-color="#26a6ff"/>
    </linearGradient>
    <linearGradient id="Degradado_sin_nombre_2593" data-name="Degradado sin nombre 2593" x1="-210.12" y1="-360.52" x2="-124.37" y2="-541.3" gradientTransform="translate(-159.21 438.04) rotate(68.77) scale(.86 .95) skewX(-1.23)" gradientUnits="userSpaceOnUse">
      <stop offset="0" stop-color="#872cfe"/>
      <stop offset=".29" stop-color="#3a12f5" stop-opacity=".83"/>
      <stop offset=".32" stop-color="#2811f3" stop-opacity=".89"/>
      <stop offset=".37" stop-color="#1310f1" stop-opacity=".95"/>
      <stop offset=".43" stop-color="#0610f0" stop-opacity=".99"/>
      <stop offset=".5" stop-color="#0210f0"/>
      <stop offset=".5" stop-color="#0110f0"/>
      <stop offset=".54" stop-color="#0110f0" stop-opacity=".98"/>
      <stop offset=".57" stop-color="#0212f0" stop-opacity=".94"/>
      <stop offset=".61" stop-color="#0316f0" stop-opacity=".85"/>
      <stop offset=".64" stop-color="#051bf1" stop-opacity=".74"/>
      <stop offset=".67" stop-color="#0721f1" stop-opacity=".59"/>
      <stop offset=".71" stop-color="#0a29f2" stop-opacity=".41"/>
      <stop offset=".74" stop-color="#0d32f3" stop-opacity=".2"/>
      <stop offset=".74" stop-color="#0e34f4" stop-opacity=".17"/>
      <stop offset=".78" stop-color="#0f41f5" stop-opacity=".26"/>
      <stop offset=".86" stop-color="#1365f8" stop-opacity=".5"/>
      <stop offset=".97" stop-color="#199efd" stop-opacity=".88"/>
      <stop offset="1" stop-color="#1cb1ff"/>
    </linearGradient>
    <linearGradient id="Degradado_sin_nombre_2592" data-name="Degradado sin nombre 2592" x1="-252.04" y1="-350.98" x2="-187.86" y2="-521.19" gradientTransform="translate(-168.31 469.18) rotate(72.85) scale(.9 1) skewX(-.79)" gradientUnits="userSpaceOnUse">
      <stop offset="0" stop-color="#9020fe"/>
      <stop offset=".29" stop-color="#3e11f5" stop-opacity=".89"/>
      <stop offset=".33" stop-color="#2710f3" stop-opacity=".93"/>
      <stop offset=".38" stop-color="#1210f1" stop-opacity=".97"/>
      <stop offset=".43" stop-color="#0610f0" stop-opacity=".99"/>
      <stop offset=".5" stop-color="#0310f0"/>
      <stop offset=".5" stop-color="#0010f0"/>
      <stop offset=".54" stop-color="#0010f0" stop-opacity=".98"/>
      <stop offset=".57" stop-color="#0012f0" stop-opacity=".94"/>
      <stop offset=".6" stop-color="#0116f0" stop-opacity=".85"/>
      <stop offset=".64" stop-color="#021bf0" stop-opacity=".74"/>
      <stop offset=".67" stop-color="#0421f1" stop-opacity=".59"/>
      <stop offset=".7" stop-color="#0529f1" stop-opacity=".41"/>
      <stop offset=".73" stop-color="#0832f2" stop-opacity=".2"/>
      <stop offset=".74" stop-color="#0936f3" stop-opacity=".11"/>
      <stop offset=".78" stop-color="#0a44f4" stop-opacity=".2"/>
      <stop offset=".85" stop-color="#0c68f7" stop-opacity=".44"/>
      <stop offset=".95" stop-color="#11a2fc" stop-opacity=".83"/>
      <stop offset="1" stop-color="#13bdff"/>
    </linearGradient>
    <linearGradient id="Degradado_sin_nombre_2591" data-name="Degradado sin nombre 2591" x1="-289.03" y1="-338.14" x2="-243.56" y2="-497.26" gradientTransform="translate(-178.28 501.18) rotate(76.55) scale(.95 1.06) skewX(-.38)" gradientUnits="userSpaceOnUse">
      <stop offset="0" stop-color="#9915fe"/>
      <stop offset=".29" stop-color="#420ff6" stop-opacity=".94"/>
      <stop offset=".29" stop-color="#3f0ff5" stop-opacity=".95"/>
      <stop offset=".34" stop-color="#250ff3" stop-opacity=".97"/>
      <stop offset=".39" stop-color="#1110f1" stop-opacity=".99"/>
      <stop offset=".44" stop-color="#0610f0" stop-opacity="1"/>
      <stop offset=".5" stop-color="#0311f0"/>
      <stop offset=".5" stop-color="#0011f0"/>
      <stop offset=".54" stop-color="#0011f0" stop-opacity=".98"/>
      <stop offset=".57" stop-color="#0013f0" stop-opacity=".94"/>
      <stop offset=".6" stop-color="#0017f0" stop-opacity=".85"/>
      <stop offset=".63" stop-color="#011cf0" stop-opacity=".74"/>
      <stop offset=".66" stop-color="#0222f1" stop-opacity=".59"/>
      <stop offset=".69" stop-color="#0329f1" stop-opacity=".41"/>
      <stop offset=".72" stop-color="#0432f2" stop-opacity=".2"/>
      <stop offset=".74" stop-color="#0539f3" stop-opacity=".06"/>
      <stop offset=".78" stop-color="#0547f4" stop-opacity=".15"/>
      <stop offset=".84" stop-color="#066bf7" stop-opacity=".39"/>
      <stop offset=".94" stop-color="#08a5fc" stop-opacity=".77"/>
      <stop offset="1" stop-color="#09c8ff"/>
    </linearGradient>
    <linearGradient id="Degradado_sin_nombre_2590" data-name="Degradado sin nombre 2590" x1="-320.02" y1="-321.62" x2="-290.7" y2="-469.29" gradientTransform="translate(-187.38 532.32) rotate(79.9) scale(1 1.11)" gradientUnits="userSpaceOnUse">
      <stop offset="0" stop-color="#a20afe"/>
      <stop offset=".5" stop-color="#0011f0"/>
      <stop offset=".54" stop-color="#0011f0" stop-opacity=".98"/>
      <stop offset=".57" stop-color="#0013f0" stop-opacity=".94"/>
      <stop offset=".6" stop-color="#0017f0" stop-opacity=".85"/>
      <stop offset=".63" stop-color="#001cf0" stop-opacity=".74"/>
      <stop offset=".66" stop-color="#0022f1" stop-opacity=".59"/>
      <stop offset=".69" stop-color="#002af1" stop-opacity=".41"/>
      <stop offset=".72" stop-color="#0033f2" stop-opacity=".2"/>
      <stop offset=".74" stop-color="#003cf3" stop-opacity="0"/>
      <stop offset=".77" stop-color="#004af4" stop-opacity=".09"/>
      <stop offset=".84" stop-color="#006ef7" stop-opacity=".34"/>
      <stop offset=".93" stop-color="#00a8fb" stop-opacity=".72"/>
      <stop offset="1" stop-color="#00d3ff"/>
    </linearGradient>
    <linearGradient id="Degradado_sin_nombre_2589" data-name="Degradado sin nombre 2589" x1="-25.01" y1="912.83" x2="-201.82" y2="621.6" gradientTransform="translate(-446.11 -283.33) rotate(-62.94)" gradientUnits="userSpaceOnUse">
      <stop offset="0" stop-color="#00d3ff"/>
      <stop offset=".01" stop-color="#07c5ff"/>
      <stop offset=".07" stop-color="#2491ff"/>
      <stop offset=".13" stop-color="#3d64ff"/>
      <stop offset=".18" stop-color="#5140ff"/>
      <stop offset=".24" stop-color="#6124ff"/>
      <stop offset=".3" stop-color="#6c10ff"/>
      <stop offset=".35" stop-color="#7304ff"/>
      <stop offset=".41" stop-color="#7600ff"/>
      <stop offset=".63" stop-color="#7600ff" stop-opacity="0"/>
      <stop offset=".93" stop-color="#fd00ff"/>
    </linearGradient>
    <linearGradient id="Degradado_sin_nombre_2588" data-name="Degradado sin nombre 2588" x1="-26.44" y1="1023.27" x2="-169.56" y2="679.11" gradientTransform="translate(-462.34 -240.67) rotate(-64.2) scale(.89) skewX(.15)" gradientUnits="userSpaceOnUse">
      <stop offset="0" stop-color="#0ec7ff"/>
      <stop offset="0" stop-color="#0ec6ff"/>
      <stop offset=".02" stop-color="#1daaff"/>
      <stop offset=".04" stop-color="#2996ff"/>
      <stop offset=".06" stop-color="#2f8aff"/>
      <stop offset=".07" stop-color="#3286ff"/>
      <stop offset=".41" stop-color="#7900ff"/>
      <stop offset=".59" stop-color="#7600ff" stop-opacity=".06"/>
      <stop offset=".63" stop-color="#7600ff" stop-opacity=".06"/>
      <stop offset=".93" stop-color="#f108ff"/>
      <stop offset="1" stop-color="#ef0cff"/>
    </linearGradient>
    <linearGradient id="Degradado_sin_nombre_2587" data-name="Degradado sin nombre 2587" x1="-34.82" y1="1160.54" x2="-133.44" y2="761.96" gradientTransform="translate(-478.57 -198.87) rotate(-65.81) scale(.79 .77) skewX(.37)" gradientUnits="userSpaceOnUse">
      <stop offset="0" stop-color="#1cbcff"/>
      <stop offset=".02" stop-color="#2aa2ff"/>
      <stop offset=".04" stop-color="#358eff"/>
      <stop offset=".05" stop-color="#3b82ff"/>
      <stop offset=".07" stop-color="#3e7eff"/>
      <stop offset=".41" stop-color="#7b00ff"/>
      <stop offset=".59" stop-color="#7600ff" stop-opacity=".11"/>
      <stop offset=".63" stop-color="#7600ff" stop-opacity=".11"/>
      <stop offset=".93" stop-color="#e510ff"/>
      <stop offset="1" stop-color="#e117ff"/>
    </linearGradient>
    <linearGradient id="Degradado_sin_nombre_2586" data-name="Degradado sin nombre 2586" x1="-52.89" y1="1338.46" x2="-94.56" y2="881.83" gradientTransform="translate(-494.8 -156.21) rotate(-67.91) scale(.68 .66) skewX(.7)" gradientUnits="userSpaceOnUse">
      <stop offset="0" stop-color="#2ab0ff"/>
      <stop offset=".02" stop-color="#369aff"/>
      <stop offset=".03" stop-color="#4186ff"/>
      <stop offset=".05" stop-color="#477aff"/>
      <stop offset=".07" stop-color="#4a76ff"/>
      <stop offset=".41" stop-color="#7e00ff"/>
      <stop offset=".59" stop-color="#7600ff" stop-opacity=".17"/>
      <stop offset=".63" stop-color="#7600ff" stop-opacity=".17"/>
      <stop offset=".93" stop-color="#d918ff"/>
      <stop offset="1" stop-color="#d323ff"/>
    </linearGradient>
    <linearGradient id="Degradado_sin_nombre_2585" data-name="Degradado sin nombre 2585" x1="-96.38" y1="1583.74" x2="-64.64" y2="1060.32" gradientTransform="translate(-511.04 -114.41) rotate(-70.79) scale(.58 .55) skewX(1.22)" gradientUnits="userSpaceOnUse">
      <stop offset="0" stop-color="#38a4ff"/>
      <stop offset=".01" stop-color="#4192ff"/>
      <stop offset=".03" stop-color="#4d7eff"/>
      <stop offset=".05" stop-color="#5372ff"/>
      <stop offset=".07" stop-color="#566eff"/>
      <stop offset=".41" stop-color="#8000ff"/>
      <stop offset=".59" stop-color="#7600ff" stop-opacity=".22"/>
      <stop offset=".63" stop-color="#7600ff" stop-opacity=".22"/>
      <stop offset=".93" stop-color="#cd20ff"/>
      <stop offset="1" stop-color="#c52fff"/>
    </linearGradient>
    <linearGradient id="Degradado_sin_nombre_2584" data-name="Degradado sin nombre 2584" x1="-198.33" y1="1939.39" x2="-66.91" y2="1329.13" gradientTransform="translate(-526.4 -71.75) rotate(-74.93) scale(.47 .45) skewX(2.09)" gradientUnits="userSpaceOnUse">
      <stop offset="0" stop-color="#4698ff"/>
      <stop offset=".01" stop-color="#4d8bff"/>
      <stop offset=".03" stop-color="#5877ff"/>
      <stop offset=".05" stop-color="#5f6bff"/>
      <stop offset=".07" stop-color="#6267ff"/>
      <stop offset=".41" stop-color="#8300ff"/>
      <stop offset=".59" stop-color="#7600ff" stop-opacity=".28"/>
      <stop offset=".63" stop-color="#7601ff" stop-opacity=".28"/>
      <stop offset=".93" stop-color="#c127ff"/>
      <stop offset="1" stop-color="#b73bff"/>
    </linearGradient>
    <linearGradient id="Degradado_sin_nombre_2583" data-name="Degradado sin nombre 2583" x1="-462.75" y1="2494.47" x2="-180.31" y2="1752.38" gradientTransform="translate(-543.5 -29.96) rotate(-81.33) scale(.37 .34) skewX(3.69)" gradientUnits="userSpaceOnUse">
      <stop offset="0" stop-color="#548dff"/>
      <stop offset="0" stop-color="#5983ff"/>
      <stop offset=".03" stop-color="#646fff"/>
      <stop offset=".05" stop-color="#6b63ff"/>
      <stop offset=".07" stop-color="#6e5fff"/>
      <stop offset=".41" stop-color="#8600ff"/>
      <stop offset=".59" stop-color="#7600ff" stop-opacity=".33"/>
      <stop offset=".63" stop-color="#7601ff" stop-opacity=".33"/>
      <stop offset=".93" stop-color="#b52fff"/>
      <stop offset="1" stop-color="#a946ff"/>
    </linearGradient>
    <linearGradient id="Degradado_sin_nombre_2582" data-name="Degradado sin nombre 2582" x1="-1185.72" y1="3334.49" x2="-639.25" y2="2369.4" gradientTransform="translate(-559.73 12.71) rotate(-92.02) scale(.28 .25) skewX(6.86)" gradientUnits="userSpaceOnUse">
      <stop offset="0" stop-color="#6281ff"/>
      <stop offset="0" stop-color="#657bff"/>
      <stop offset=".03" stop-color="#7067ff"/>
      <stop offset=".05" stop-color="#775bff"/>
      <stop offset=".07" stop-color="#7a57ff"/>
      <stop offset=".41" stop-color="#80f"/>
      <stop offset=".59" stop-color="#7600ff" stop-opacity=".39"/>
      <stop offset=".63" stop-color="#7601ff" stop-opacity=".39"/>
      <stop offset=".93" stop-color="#a937ff"/>
      <stop offset="1" stop-color="#9b52ff"/>
    </linearGradient>
    <linearGradient id="Degradado_sin_nombre_2581" data-name="Degradado sin nombre 2581" x1="-3006.89" y1="4093.06" x2="-1999.57" y2="2813.13" gradientTransform="translate(-575.1 55.37) rotate(-111.29) scale(.21 .19) skewX(12.72)" gradientUnits="userSpaceOnUse">
      <stop offset="0" stop-color="#7075ff"/>
      <stop offset="0" stop-color="#7173ff"/>
      <stop offset=".03" stop-color="#7c5fff"/>
      <stop offset=".05" stop-color="#8353ff"/>
      <stop offset=".07" stop-color="#864fff"/>
      <stop offset=".41" stop-color="#8b00ff"/>
      <stop offset=".59" stop-color="#7600ff" stop-opacity=".44"/>
      <stop offset=".63" stop-color="#7601ff" stop-opacity=".44"/>
      <stop offset=".93" stop-color="#9d3fff"/>
      <stop offset="1" stop-color="#8d5eff"/>
    </linearGradient>
    <linearGradient id="Degradado_sin_nombre_2580" data-name="Degradado sin nombre 2580" x1="-5027.95" y1="2839.35" x2="-3687.35" y2="1584.25" gradientTransform="translate(-592.2 96.29) rotate(-142.56) scale(.18 .19) skewX(17.38)" gradientUnits="userSpaceOnUse">
      <stop offset="0" stop-color="#7f6aff"/>
      <stop offset=".02" stop-color="#8957ff"/>
      <stop offset=".05" stop-color="#8f4bff"/>
      <stop offset=".07" stop-color="#9247ff"/>
      <stop offset=".41" stop-color="#8e00ff"/>
      <stop offset=".59" stop-color="#7600ff" stop-opacity=".5"/>
      <stop offset=".63" stop-color="#7601ff" stop-opacity=".5"/>
      <stop offset=".93" stop-color="#9247ff"/>
      <stop offset="1" stop-color="#7f6aff"/>
    </linearGradient>
    <linearGradient id="Degradado_sin_nombre_2579" data-name="Degradado sin nombre 2579" x1="-4400.4" y1="677.11" x2="-3296.85" y2="-79.36" gradientTransform="translate(-608.43 138.96) rotate(-173.84) scale(.21 .25) skewX(12.74)" gradientUnits="userSpaceOnUse">
      <stop offset="0" stop-color="#8d5eff"/>
      <stop offset=".02" stop-color="#944fff"/>
      <stop offset=".05" stop-color="#9a43ff"/>
      <stop offset=".07" stop-color="#9d3fff"/>
      <stop offset=".41" stop-color="#9000ff"/>
      <stop offset=".59" stop-color="#7600ff" stop-opacity=".56"/>
      <stop offset=".63" stop-color="#7501ff" stop-opacity=".56"/>
      <stop offset=".93" stop-color="#864fff"/>
      <stop offset="1" stop-color="#7075ff"/>
    </linearGradient>
    <linearGradient id="Degradado_sin_nombre_2578" data-name="Degradado sin nombre 2578" x1="-3181.31" y1="-226.76" x2="-2367.35" y2="-619.31" gradientTransform="translate(-623.79 180.75) rotate(166.89) scale(.28 .34) skewX(6.85)" gradientUnits="userSpaceOnUse">
      <stop offset="0" stop-color="#9b52ff"/>
      <stop offset=".02" stop-color="#a047ff"/>
      <stop offset=".05" stop-color="#a63bff"/>
      <stop offset=".07" stop-color="#a937ff"/>
      <stop offset=".41" stop-color="#9300ff"/>
      <stop offset=".59" stop-color="#7600ff" stop-opacity=".61"/>
      <stop offset=".63" stop-color="#7501ff" stop-opacity=".61"/>
      <stop offset=".93" stop-color="#7a57ff"/>
      <stop offset="1" stop-color="#6281ff"/>
    </linearGradient>
    <linearGradient id="Degradado_sin_nombre_2577" data-name="Degradado sin nombre 2577" x1="-2396.17" y1="-485.34" x2="-1763.84" y2="-679.42" gradientTransform="translate(-640.89 223.41) rotate(156.19) scale(.37 .45) skewX(3.69)" gradientUnits="userSpaceOnUse">
      <stop offset="0" stop-color="#a946ff"/>
      <stop offset=".01" stop-color="#ac3fff"/>
      <stop offset=".04" stop-color="#b233ff"/>
      <stop offset=".07" stop-color="#b52fff"/>
      <stop offset=".41" stop-color="#9500ff"/>
      <stop offset=".59" stop-color="#7600ff" stop-opacity=".67"/>
      <stop offset=".63" stop-color="#7501ff" stop-opacity=".67"/>
      <stop offset=".93" stop-color="#6e5fff"/>
      <stop offset="1" stop-color="#548dff"/>
    </linearGradient>
    <linearGradient id="Degradado_sin_nombre_2576" data-name="Degradado sin nombre 2576" x1="-1914.24" y1="-545.59" x2="-1399.17" y2="-621.46" gradientTransform="translate(-657.12 265.21) rotate(149.8) scale(.47 .55) skewX(2.09)" gradientUnits="userSpaceOnUse">
      <stop offset="0" stop-color="#b73bff"/>
      <stop offset="0" stop-color="#b837ff"/>
      <stop offset=".04" stop-color="#be2bff"/>
      <stop offset=".07" stop-color="#c127ff"/>
      <stop offset=".41" stop-color="#9800ff"/>
      <stop offset=".59" stop-color="#7600ff" stop-opacity=".72"/>
      <stop offset=".63" stop-color="#7501ff" stop-opacity=".72"/>
      <stop offset=".93" stop-color="#6267ff"/>
      <stop offset="1" stop-color="#4698ff"/>
    </linearGradient>
    <linearGradient id="Degradado_sin_nombre_2575" data-name="Degradado sin nombre 2575" x1="-1599.17" y1="-542.52" x2="-1169.92" y2="-540.25" gradientTransform="translate(-672.49 307.87) rotate(145.65) scale(.58 .66) skewX(1.21)" gradientUnits="userSpaceOnUse">
      <stop offset="0" stop-color="#c52fff"/>
      <stop offset=".04" stop-color="#ca24ff"/>
      <stop offset=".07" stop-color="#cd20ff"/>
      <stop offset=".41" stop-color="#9b00ff"/>
      <stop offset=".59" stop-color="#7600ff" stop-opacity=".78"/>
      <stop offset=".63" stop-color="#7502ff" stop-opacity=".78"/>
      <stop offset=".93" stop-color="#566eff"/>
      <stop offset="1" stop-color="#38a4ff"/>
    </linearGradient>
    <linearGradient id="Degradado_sin_nombre_2574" data-name="Degradado sin nombre 2574" x1="-1379.67" y1="-520.87" x2="-1020.21" y2="-464.02" gradientTransform="translate(-689.59 350.53) rotate(142.77) scale(.68 .78) skewX(.7)" gradientUnits="userSpaceOnUse">
      <stop offset="0" stop-color="#d323ff"/>
      <stop offset=".03" stop-color="#d61cff"/>
      <stop offset=".07" stop-color="#d918ff"/>
      <stop offset=".41" stop-color="#9d00ff"/>
      <stop offset=".59" stop-color="#7600ff" stop-opacity=".83"/>
      <stop offset=".63" stop-color="#7502ff" stop-opacity=".83"/>
      <stop offset=".93" stop-color="#4a76ff"/>
      <stop offset="1" stop-color="#2ab0ff"/>
    </linearGradient>
    <linearGradient id="Degradado_sin_nombre_2573" data-name="Degradado sin nombre 2573" x1="-1216.07" y1="-487.24" x2="-917.11" y2="-392" gradientTransform="translate(-705.82 392.33) rotate(140.66) scale(.79 .89) skewX(.37)" gradientUnits="userSpaceOnUse">
      <stop offset="0" stop-color="#e117ff"/>
      <stop offset=".02" stop-color="#e214ff"/>
      <stop offset=".07" stop-color="#e510ff"/>
      <stop offset=".41" stop-color="#a000ff"/>
      <stop offset=".59" stop-color="#7600ff" stop-opacity=".89"/>
      <stop offset=".63" stop-color="#7502ff" stop-opacity=".89"/>
      <stop offset=".93" stop-color="#3e7eff"/>
      <stop offset="1" stop-color="#1cbcff"/>
    </linearGradient>
    <linearGradient id="Degradado_sin_nombre_2572" data-name="Degradado sin nombre 2572" x1="-1091.59" y1="-447.23" x2="-846.94" y2="-326.04" gradientTransform="translate(-721.18 434.99) rotate(139.06) scale(.89 1) skewX(.15)" gradientUnits="userSpaceOnUse">
      <stop offset="0" stop-color="#ef0cff"/>
      <stop offset=".07" stop-color="#f108ff"/>
      <stop offset=".41" stop-color="#a200ff"/>
      <stop offset=".59" stop-color="#7600ff" stop-opacity=".94"/>
      <stop offset=".63" stop-color="#7502ff" stop-opacity=".94"/>
      <stop offset=".93" stop-color="#3286ff"/>
      <stop offset="1" stop-color="#0ec7ff"/>
    </linearGradient>
    <linearGradient id="Degradado_sin_nombre_2571" data-name="Degradado sin nombre 2571" x1="-994.14" y1="-410.38" x2="-798.87" y2="-273.46" gradientTransform="translate(-738.28 476.79) rotate(137.8) scale(1 1.11)" gradientUnits="userSpaceOnUse">
      <stop offset=".07" stop-color="#fd00ff"/>
      <stop offset=".59" stop-color="#7600ff"/>
      <stop offset=".65" stop-color="#7304ff"/>
      <stop offset=".7" stop-color="#6c10ff"/>
      <stop offset=".76" stop-color="#6124ff"/>
      <stop offset=".82" stop-color="#5140ff"/>
      <stop offset=".87" stop-color="#3d64ff"/>
      <stop offset=".93" stop-color="#2491ff"/>
      <stop offset=".99" stop-color="#07c5ff"/>
      <stop offset="1" stop-color="#00d3ff"/>
    </linearGradient>
    <linearGradient id="Degradado_sin_nombre_2570" data-name="Degradado sin nombre 2570" x1="-64.82" y1="445.7" x2="-93.32" y2="398.76" gradientTransform="translate(-135.27 -295.44) rotate(-37.11)" gradientUnits="userSpaceOnUse">
      <stop offset=".03" stop-color="#db00ff"/>
      <stop offset=".35" stop-color="#7600ff"/>
      <stop offset=".44" stop-color="#7304ff"/>
      <stop offset=".53" stop-color="#6c10ff"/>
      <stop offset=".62" stop-color="#6124ff"/>
      <stop offset=".71" stop-color="#5140ff"/>
      <stop offset=".8" stop-color="#3d64ff"/>
      <stop offset=".89" stop-color="#2491ff"/>
      <stop offset=".98" stop-color="#07c5ff"/>
      <stop offset="1" stop-color="#00d3ff"/>
    </linearGradient>
    <filter id="drop-shadow-1" filterUnits="userSpaceOnUse">
      <feOffset dx="0" dy="0"/>
      <feGaussianBlur result="blur" stdDeviation="7.54"/>
      <feFlood flood-color="#2e0472" flood-opacity=".45"/>
      <feComposite in2="blur" operator="in"/>
      <feComposite in="SourceGraphic"/>
    </filter>
    <linearGradient id="Degradado_sin_nombre_2569" data-name="Degradado sin nombre 2569" x1="-74.91" y1="477.44" x2="-83.58" y2="463.16" gradientTransform="translate(-135.27 -295.44) rotate(-37.11)" gradientUnits="userSpaceOnUse">
      <stop offset=".03" stop-color="#db00ff"/>
      <stop offset=".35" stop-color="#7600ff"/>
      <stop offset=".44" stop-color="#7304ff"/>
      <stop offset=".53" stop-color="#6c10ff"/>
      <stop offset=".62" stop-color="#6124ff"/>
      <stop offset=".71" stop-color="#5140ff"/>
      <stop offset=".8" stop-color="#3d64ff"/>
      <stop offset=".89" stop-color="#2491ff"/>
      <stop offset=".98" stop-color="#07c5ff"/>
      <stop offset="1" stop-color="#00d3ff"/>
    </linearGradient>
    <filter id="drop-shadow-2" filterUnits="userSpaceOnUse">
      <feOffset dx="0" dy="0"/>
      <feGaussianBlur result="blur-2" stdDeviation="7.54"/>
      <feFlood flood-color="#2e0472" flood-opacity=".45"/>
      <feComposite in2="blur-2" operator="in"/>
      <feComposite in="SourceGraphic"/>
    </filter>
    <linearGradient id="Degradado_sin_nombre_2569-2" data-name="Degradado sin nombre 2569" x1="249.14" y1="101.82" x2="238.54" y2="84.36" gradientTransform="matrix(1,0,0,1,0,0)" xlink:href="#Degradado_sin_nombre_2569"/>
    <filter id="drop-shadow-3" filterUnits="userSpaceOnUse">
      <feOffset dx="0" dy="0"/>
      <feGaussianBlur result="blur-3" stdDeviation="7.54"/>
      <feFlood flood-color="#2e0472" flood-opacity=".45"/>
      <feComposite in2="blur-3" operator="in"/>
      <feComposite in="SourceGraphic"/>
    </filter>
  </defs>
  <g id="OBJECTS">
    <g>
      <path class="cls-4" d="m363.78,242.61c-.94-6.84-2.82-13.6-5.37-19.97-6.79-16.95-26.88-33.98-25.98-52.39.91-18.52,18.53-31.55,20.15-50.12,1.27-14.55-10.78-27.23-24.08-33.25-13.31-6.02-28.21-7.45-42.04-12.15-22.96-7.8-41.82-24.11-60.69-39.33C203.63,17.54,176.27-2.77,146.09.82c-26.65,3.16-50.86,26.3-52.52,53.54-.84,13.66,3.19,27.09,5.35,40.61s2.16,28.41-5.67,39.64c-8.41,12.07-23.71,17-38.1,20.1-14.38,3.11-29.68,5.48-41.17,14.67-31.79,25.43-.43,71.14,19.52,91.64,15.86,16.3,33.76,31.49,55.22,38.99,21.47,7.5,47.18,6.06,64.7-8.43,10.24-8.47,16.82-20.43,24.73-31.11,7.91-10.68,18.39-20.8,31.56-22.53,16.71-2.19,31.98,9.72,42.69,22.73,10.71,13.01,19.56,28.23,33.86,37.16,24.79,15.49,62.17,3.83,73.76-23.01,4.36-10.1,5.26-21.26,3.75-32.22Z"/>
      <path class="cls-13" d="m95.56,57.91c-.45,13.2,3.44,26.13,5.69,39.17.7,4.08,1.2,8.29,1.33,12.48.28,9.22-1.24,18.37-6.29,25.89-7.9,11.76-22.42,16.79-36.16,20.07-13.73,3.26-28.41,5.81-39.58,14.71-12.46,9.94-15.26,22.94-12.84,36.35,3.52,19.83,18.56,40.55,30.1,52.62,15.3,15.96,32.87,30.69,53.86,37.81,15.94,5.41,34.21,5.75,49.52-.64,4.84-2.02,9.39-4.71,13.47-8.13,9.81-8.16,16.12-19.64,23.71-29.9,7.58-10.27,17.59-20,30.17-21.79,9.98-1.41,19.44,2.4,27.68,8.44,4.93,3.62,9.42,8.04,13.31,12.62,10.37,12.23,19.01,26.62,32.77,35.09,2.39,1.47,4.91,2.69,7.5,3.66,23.29,8.71,53.14-2.41,63.51-25.16,4.35-9.55,5.51-20.13,4.34-30.58-.73-6.52-2.35-12.99-4.62-19.11-3.3-8.96-10.42-17.99-16.03-27.27-4.6-7.61-8.18-15.39-7.77-23.44.9-17.94,18.05-30.68,18.61-48.58.15-4.75-1.52-9.12-3.67-13.4-2.39-4.73-5.45-9.27-9.12-13.2-3.6-3.87-7.79-7.33-12.62-9.63-12.57-6-26.87-7.21-40.06-11.71-21.89-7.47-39.93-22.94-58-37.35C203.19,20.03,177.06.86,148.27,4.29c-26.54,3.2-51.77,26.31-52.7,53.62Z"/>
      <path class="cls-24" d="m97.56,61.45c-.08,12.73,3.69,25.17,6.02,37.73.73,3.93,1.27,7.99,1.44,12.04.39,8.9-.97,17.75-5.7,25.08-7.4,11.46-21.12,16.58-34.22,20.03-13.08,3.42-27.15,6.13-37.98,14.75-12.08,9.61-15.1,22.01-13.16,34.95,2.88,19.15,16.96,39.42,28.15,51.35,14.75,15.61,31.98,29.89,52.49,36.63,15.58,5.12,33.36,5.25,48.22-1.09,4.7-2.01,9.1-4.67,13.07-8.01,9.35-7.87,15.43-18.85,22.69-28.7,7.26-9.85,16.79-19.21,28.79-21.05,9.51-1.46,18.55,2.02,26.46,7.63,4.74,3.36,9.07,7.49,12.83,11.77,10.03,11.45,18.45,25,31.68,33.01,2.3,1.39,4.71,2.55,7.2,3.47,22.34,8.28,50.76-2.11,61.06-23.47,4.34-9.01,5.77-19,4.93-28.95-.51-6.21-1.9-12.38-3.87-18.25-2.89-8.6-9.36-17.33-14.5-26.32-4.22-7.37-7.52-14.91-7.12-22.71.89-17.36,17.45-29.86,17.06-47.05-.11-4.94-2.52-9.27-4.95-13.75-2.73-4.99-5.67-10.02-9.18-14.42-3.45-4.34-7.45-8.45-12.59-11.02-11.85-5.93-25.53-6.97-38.07-11.28-20.82-7.14-38.05-21.77-55.3-35.37-20.24-15.95-45.15-33.99-72.56-30.71-26.43,3.24-52.71,26.29-52.88,53.69Z"/>
      <path class="cls-18" d="m99.56,65c.27,12.26,3.94,24.2,6.36,36.3.76,3.79,1.33,7.69,1.55,11.6.49,8.58-.7,17.13-5.1,24.26-6.89,11.15-19.83,16.38-32.28,20-12.43,3.58-25.89,6.45-36.39,14.79-11.69,9.29-14.97,21.1-13.47,33.55,2.22,18.48,15.34,38.33,26.2,50.08,14.15,15.31,31.1,29.09,51.12,35.44,15.21,4.83,32.5,4.76,46.91-1.54,4.56-2,8.82-4.63,12.66-7.9,8.9-7.58,14.74-18.05,21.67-27.49,6.93-9.44,16-18.41,27.4-20.3,9.04-1.5,17.65,1.65,25.24,6.82,4.55,3.1,8.71,6.93,12.35,10.92,9.69,10.67,17.9,23.38,30.6,30.94,2.21,1.31,4.52,2.4,6.91,3.28,21.4,7.84,48.38-1.81,58.6-21.78,4.34-8.47,6.02-17.88,5.52-27.31-.3-5.89-1.44-11.77-3.12-17.39-2.47-8.24-8.3-16.66-12.97-25.36-3.83-7.13-6.86-14.44-6.46-21.99.88-16.79,16.73-29.07,15.52-45.51-.38-5.16-3.5-9.42-6.23-14.11-3.06-5.26-5.89-10.77-9.25-15.65-3.3-4.82-7.11-9.56-12.57-12.41-11.15-5.81-24.18-6.73-36.09-10.84-19.75-6.81-36.16-20.6-52.61-33.39-19.3-15-42.99-31.96-69-28.78-26.33,3.22-53.66,26.26-53.06,53.77Z"/>
      <path class="cls-36" d="m101.56,68.55c.6,11.78,4.19,23.24,6.69,34.86.79,3.64,1.39,7.39,1.67,11.15.6,8.25-.43,16.51-4.51,23.44-6.38,10.84-18.53,16.17-30.34,19.97-11.78,3.73-24.62,6.78-34.79,14.83-11.31,8.96-14.83,20.18-13.79,32.15,1.55,17.81,13.73,37.21,24.25,48.81,13.58,14.98,30.21,28.28,49.76,34.26,14.84,4.54,31.64,4.27,45.6-1.99,4.42-1.98,8.54-4.59,12.26-7.79,8.46-7.28,14.05-17.26,20.65-26.28,6.6-9.03,15.2-17.61,26.01-19.56,8.56-1.54,16.75,1.27,24.02,6,4.35,2.83,8.35,6.37,11.87,10.07,9.35,9.88,17.34,21.76,29.51,28.86,2.12,1.24,4.33,2.26,6.61,3.09,20.46,7.41,46.01-1.51,56.15-20.08,4.33-7.93,6.27-16.75,6.11-25.68-.09-5.58-.98-11.16-2.37-16.53-2.04-7.89-7.24-16-11.45-24.4-3.45-6.88-6.2-13.96-5.81-21.26.87-16.21,15.89-28.31,13.98-43.98-.66-5.38-4.5-9.57-7.51-14.47-3.4-5.53-6.11-11.53-9.31-16.88-3.14-5.3-6.77-10.68-12.54-13.79-10.47-5.66-22.84-6.49-34.11-10.4-18.68-6.48-34.28-19.43-49.91-31.41-18.35-14.04-40.83-29.88-65.44-26.85-26.22,3.23-54.64,26.21-53.24,53.84Z"/>
      <path class="cls-30" d="m103.56,72.1c.9,11.29,4.44,22.28,7.03,33.43.81,3.49,1.46,7.09,1.78,10.71.71,7.93-.16,15.89-3.91,22.63-5.87,10.53-17.23,16-28.41,19.93-11.13,3.92-23.36,7.1-33.2,14.87-10.93,8.63-14.7,19.26-14.11,30.75.88,17.15,12.13,36.09,22.3,47.54,13.01,14.65,29.32,27.48,48.39,33.08,14.47,4.25,30.78,3.77,44.3-2.43,4.28-1.97,8.26-4.54,11.86-7.67,8.01-6.98,13.36-16.46,19.63-25.07,6.27-8.61,14.41-16.81,24.62-18.82,8.09-1.58,15.86.89,22.81,5.19,4.16,2.57,8,5.82,11.39,9.22,9.01,9.1,16.78,20.15,28.42,26.79,2.02,1.16,4.14,2.12,6.31,2.9,19.51,6.98,43.65-1.22,53.7-18.39,4.33-7.4,6.53-15.62,6.7-24.05.12-5.26-.52-10.55-1.62-15.67-1.62-7.54-6.18-15.34-9.92-23.45-3.07-6.64-5.55-13.48-5.15-20.53.86-15.63,14.95-27.55,12.43-42.44-.95-5.62-5.5-9.72-8.8-14.83-3.75-5.79-6.33-12.28-9.37-18.1-2.99-5.78-6.43-11.79-12.51-15.18-9.8-5.47-21.5-6.25-32.13-9.97-17.61-6.15-32.39-18.27-47.22-29.43-17.41-13.09-38.67-27.81-61.89-24.92-26.11,3.25-55.64,26.14-53.42,53.92Z"/>
      <path class="cls-6" d="m105.56,75.64c1.19,10.81,4.7,21.32,7.37,31.99.84,3.35,1.52,6.8,1.89,10.26.81,7.61.11,15.27-3.32,21.81-5.36,10.22-15.93,15.79-26.47,19.9-10.47,4.08-22.09,7.42-31.61,14.91-10.55,8.3-14.56,18.35-14.42,29.35.21,16.48,10.52,34.97,20.35,46.27,12.45,14.31,28.44,26.68,47.02,31.9,14.11,3.96,29.93,3.28,42.99-2.88,4.14-1.96,7.98-4.5,11.45-7.56,7.57-6.67,12.67-15.67,18.61-23.86,5.95-8.2,13.61-16.02,23.23-18.08,7.62-1.63,14.96.52,21.59,4.38,3.97,2.31,7.64,5.26,10.91,8.37,8.67,8.32,16.23,18.53,27.34,24.72,1.93,1.08,3.94,1.98,6.01,2.7,18.57,6.55,41.3-.92,51.25-16.69,4.33-6.86,6.78-14.5,7.29-22.41.34-4.95-.06-9.95-.87-14.8-1.2-7.18-5.12-14.68-8.4-22.49-2.69-6.4-4.89-13-4.5-19.81.86-15.05,13.92-26.8,10.89-40.91-1.26-5.87-6.49-9.87-10.08-15.19-4.09-6.06-6.55-13.03-9.44-19.33-2.84-6.25-6.09-12.89-12.49-16.57-9.15-5.26-20.16-6.01-30.15-9.53-16.54-5.82-30.5-17.1-44.53-27.45-16.46-12.14-36.5-25.73-58.33-22.99-26.01,3.27-56.67,26.05-53.6,53.99Z"/>
      <path class="cls-17" d="m107.56,79.19c1.45,10.32,4.95,20.36,7.7,30.55.87,3.2,1.58,6.5,2,9.82.92,7.29.38,14.65-2.72,21-4.85,9.91-14.64,15.59-24.53,19.86-9.82,4.24-20.83,7.75-30.01,14.95-10.16,7.97-14.43,17.43-14.74,27.95-.46,15.82,8.92,33.85,18.41,45,11.89,13.98,27.55,25.88,45.65,30.71,13.74,3.67,29.07,2.79,41.68-3.33,4-1.95,7.7-4.46,11.05-7.44,7.13-6.37,11.98-14.87,17.59-22.65,5.62-7.79,12.81-15.22,21.84-17.34,7.15-1.67,14.07.14,20.37,3.56,3.77,2.05,7.29,4.69,10.43,7.52,8.35,7.52,15.67,16.91,26.25,22.64,1.84,1,3.75,1.83,5.71,2.51,17.63,6.11,38.96-.63,48.79-15,4.33-6.33,7.02-13.37,7.88-20.78.54-4.64.4-9.34-.12-13.94-.77-6.84-4.06-14.01-6.87-21.53-2.31-6.16-4.23-12.52-3.84-19.08.85-14.47,12.81-26.05,9.34-39.37-1.59-6.12-7.49-10.02-11.36-15.54-4.43-6.32-6.77-13.78-9.5-20.56-2.69-6.73-5.75-13.99-12.46-17.96-8.5-5.02-18.81-5.77-28.16-9.09-15.47-5.49-28.62-15.93-41.83-25.46-15.52-11.19-34.34-23.66-54.77-21.06-25.9,3.29-57.73,25.96-53.78,54.07Z"/>
      <path class="cls-1" d="m109.56,82.74c1.69,9.82,5.2,19.4,8.04,29.12.9,3.05,1.64,6.2,2.11,9.37,1.03,6.97.65,14.03-2.13,20.18-4.35,9.6-13.34,15.39-22.59,19.83-9.17,4.4-19.56,8.07-28.42,14.99-9.78,7.64-14.3,16.52-15.06,26.55-1.14,15.16,7.32,32.73,16.46,43.73,11.32,13.64,26.67,25.08,44.29,29.53,13.37,3.38,28.21,2.3,40.38-3.78,3.86-1.94,7.42-4.41,10.65-7.33,6.69-6.06,11.29-14.08,16.57-21.44,5.29-7.37,12.02-14.42,20.45-16.6,6.68-1.71,13.17-.24,19.15,2.75,3.58,1.79,6.94,4.14,9.95,6.67,8.01,6.74,15.12,15.3,25.16,20.57,1.75.92,3.56,1.69,5.42,2.32,16.69,5.68,36.63-.35,46.34-13.3,4.35-5.8,7.27-12.24,8.47-19.14.75-4.32.86-8.74.63-13.08-.35-6.49-3-13.35-5.34-20.58-1.92-5.91-3.57-12.05-3.19-18.35.84-13.9,11.64-25.29,7.8-37.84-1.95-6.37-8.49-10.16-12.64-15.9-4.77-6.59-6.99-14.54-9.56-21.78-2.53-7.21-5.41-15.08-12.44-19.35-7.87-4.77-17.47-5.53-26.18-8.66-14.4-5.16-26.73-14.76-39.14-23.48-14.58-10.24-32.17-21.57-51.22-19.13-25.79,3.31-58.84,25.86-53.96,54.14Z"/>
      <path class="cls-9" d="m111.56,86.29c1.92,9.34,5.45,18.44,8.38,27.68.93,2.91,1.71,5.9,2.22,8.93,1.13,6.64.92,13.41-1.53,19.37-3.84,9.3-12.04,15.19-20.66,19.79-8.52,4.56-18.3,8.4-26.82,15.03-9.4,7.31-14.18,15.61-15.37,25.15-1.82,14.5,5.72,31.6,14.51,42.46,10.76,13.3,25.78,24.28,42.92,28.35,13,3.09,27.35,1.8,39.07-4.23,3.72-1.92,7.14-4.36,10.24-7.22,6.25-5.76,10.6-13.29,15.55-20.23,4.96-6.96,11.22-13.62,19.07-15.86,6.21-1.76,12.27-.61,17.93,1.93,3.39,1.53,6.58,3.58,9.47,5.82,7.67,5.95,14.56,13.68,24.08,18.5,1.65.84,3.37,1.55,5.12,2.13,15.74,5.25,34.32-.06,43.89-11.61,4.36-5.27,7.52-11.12,9.06-17.51.96-4.01,1.33-8.14,1.38-12.22.08-6.15-1.94-12.69-3.82-19.62-1.54-5.67-2.92-11.57-2.53-17.63.83-13.32,10.4-24.52,6.26-36.3-2.32-6.62-9.49-10.31-13.93-16.26-5.12-6.85-7.21-15.29-9.63-23.01-2.38-7.69-5.07-16.17-12.41-20.73-7.24-4.5-16.13-5.29-24.2-8.22-13.33-4.83-24.84-13.59-36.44-21.5-13.63-9.29-30-19.49-47.66-17.2-25.69,3.34-59.98,25.77-54.14,54.22Z"/>
      <path class="cls-27" d="m113.56,89.83c2.12,8.85,5.7,17.47,8.71,26.24.95,2.76,1.77,5.6,2.34,8.48,1.24,6.32,1.19,12.79-.94,18.55-3.33,8.99-10.74,14.98-18.72,19.76-7.87,4.71-17.03,8.72-25.23,15.06-9.02,6.99-14.05,14.69-15.69,23.75-2.5,13.84,4.12,30.48,12.56,41.19,10.2,12.95,24.89,23.47,41.55,27.17,12.64,2.8,26.5,1.31,37.76-4.68,3.58-1.91,6.87-4.32,9.84-7.1,5.81-5.45,9.9-12.49,14.53-19.02,4.64-6.55,10.43-12.83,17.68-15.12,5.73-1.8,11.38-.99,16.71,1.12,3.19,1.27,6.23,3.02,8.99,4.97,7.34,5.17,14,12.06,22.99,16.42,1.56.76,3.17,1.4,4.82,1.94,14.8,4.82,32.03.24,41.44-9.91,4.39-4.74,7.78-9.99,9.65-15.88,1.18-3.69,1.79-7.54,2.13-11.36.51-5.8-.88-12.03-2.29-18.66-1.16-5.43-2.26-11.09-1.88-16.9.82-12.74,9.11-23.72,4.71-34.77-2.73-6.85-10.5-10.45-15.21-16.62-5.47-7.11-7.43-16.04-9.69-24.24-2.23-8.16-4.74-17.25-12.39-22.12-6.62-4.22-14.79-5.05-22.22-7.78-12.27-4.5-22.96-12.42-33.75-19.52-12.69-8.34-27.84-17.4-44.1-15.27-25.58,3.36-61.18,25.67-54.32,54.29Z"/>
      <path class="cls-16" d="m115.56,93.38c2.31,8.37,5.95,16.51,9.05,24.81.98,2.61,1.83,5.3,2.45,8.04,1.35,6,1.46,12.17-.34,17.73-2.82,8.68-9.45,14.77-16.78,19.72-7.21,4.87-15.77,9.04-23.64,15.1-8.63,6.66-13.93,13.78-16.01,22.35-3.19,13.18,2.52,29.35,10.61,39.92,9.65,12.61,24.01,22.67,40.18,25.98,12.27,2.51,25.64.82,36.46-5.13,3.44-1.9,6.59-4.27,9.43-6.99,5.37-5.14,9.21-11.7,13.51-17.81,4.31-6.14,9.63-12.03,16.29-14.38,5.26-1.84,10.48-1.37,15.49.31,3,1,5.87,2.46,8.51,4.12,7,4.38,13.45,10.44,21.9,14.35,1.47.68,2.98,1.26,4.52,1.75,13.86,4.38,29.77.54,38.99-8.22,4.43-4.21,8.03-8.87,10.24-14.24,1.39-3.38,2.26-6.94,2.88-10.5.95-5.46.18-11.36-.76-17.71-.78-5.19-1.6-10.61-1.22-16.17.81-12.16,7.79-22.91,3.17-33.23-3.17-7.07-11.49-10.6-16.49-16.98-5.81-7.37-7.65-16.79-9.75-25.46-2.08-8.64-4.42-18.32-12.36-23.51-6.01-3.93-13.44-4.81-20.23-7.34-11.2-4.17-21.07-11.25-31.05-17.54-11.74-7.38-25.67-15.32-40.55-13.34-25.47,3.39-62.44,25.59-54.5,54.37Z"/>
      <path class="cls-3" d="m117.56,96.93c2.48,7.89,6.2,15.55,9.38,23.37,1.01,2.46,1.9,5,2.56,7.59,1.45,5.68,1.73,11.55.25,16.92-2.31,8.37-8.15,14.57-14.84,19.69-6.56,5.02-14.5,9.37-22.04,15.14-8.25,6.33-13.82,12.87-16.32,20.95-3.89,12.52.93,28.23,8.66,38.66,9.09,12.26,23.12,21.87,38.82,24.8,11.9,2.22,24.78.32,35.15-5.58,3.3-1.89,6.31-4.22,9.03-6.88,4.94-4.82,8.52-10.9,12.49-16.6,3.98-5.72,8.84-11.23,14.9-13.64,4.79-1.89,9.59-1.75,14.27-.51,2.81.74,5.52,1.9,8.04,3.27,6.65,3.6,12.89,8.83,20.82,12.27,1.38.6,2.79,1.12,4.22,1.56,12.91,3.95,27.53.86,36.53-6.53,4.48-3.67,8.28-7.74,10.83-12.61,1.6-3.07,2.74-6.34,3.63-9.64,1.39-5.12,1.24-10.7.76-16.75-.4-4.94-.94-10.14-.57-15.45.81-11.58,6.43-22.08,1.63-31.7-3.63-7.27-12.49-10.74-17.77-17.33-6.16-7.64-7.87-17.55-9.81-26.69-1.92-9.12-4.1-19.37-12.34-24.9-5.41-3.63-12.1-4.57-18.25-6.91-10.13-3.84-19.19-10.08-28.36-15.56-10.8-6.43-23.5-13.22-36.99-11.41-25.36,3.42-63.76,25.53-54.67,54.44Z"/>
      <path class="cls-37" d="m119.56,100.48c2.63,7.42,6.45,14.59,9.72,21.94,1.04,2.32,1.96,4.71,2.67,7.15,1.56,5.36,2,10.93.85,16.1-1.8,8.06-6.85,14.36-12.91,19.66-5.91,5.18-13.24,9.69-20.45,15.18-7.87,6-13.7,11.96-16.64,19.55-4.59,11.85-.66,27.1,6.71,37.39,8.54,11.92,22.23,21.07,37.45,23.62,11.53,1.93,23.93-.17,33.84-6.03,3.16-1.88,6.04-4.17,8.63-6.76,4.51-4.51,7.83-10.11,11.47-15.39,3.66-5.31,8.04-10.43,13.51-12.89,4.32-1.93,8.69-2.12,13.05-1.32,2.61.48,5.16,1.35,7.56,2.42,6.31,2.82,12.34,7.21,19.73,10.2,1.28.52,2.6.98,3.93,1.37,11.97,3.52,25.32,1.2,34.08-4.83,4.54-3.13,8.54-6.62,11.42-10.97,1.82-2.75,3.21-5.74,4.38-8.78,1.84-4.78,2.3-10.04,2.29-15.79-.02-4.7-.28-9.66.08-14.72.8-11.01,5.06-21.21.08-30.16-4.14-7.45-13.49-10.89-19.06-17.69-6.5-7.9-8.09-18.3-9.88-27.91-1.77-9.6-3.8-20.41-12.31-26.29-4.81-3.32-10.76-4.33-16.27-6.47-9.06-3.51-17.3-8.91-25.66-13.58-9.85-5.48-21.34-11.13-33.43-9.48-25.26,3.45-65.15,25.5-54.85,54.52Z"/>
      <path class="cls-12" d="m121.55,104.02c2.77,6.96,6.7,13.63,10.06,20.5,1.07,2.17,2.02,4.41,2.78,6.7,1.67,5.03,2.27,10.31,1.44,15.29-1.3,7.75-5.56,14.15-10.97,19.62-5.26,5.33-11.97,10.01-18.85,15.22-7.48,5.67-13.6,11.04-16.96,18.15-5.29,11.19-2.25,25.96,4.77,36.12,8,11.57,21.35,20.27,36.08,22.43,11.16,1.64,23.07-.66,32.54-6.48,3.02-1.86,5.76-4.12,8.22-6.65,4.08-4.19,7.14-9.31,10.45-14.18,3.33-4.9,7.24-9.64,12.12-12.15,3.85-1.97,7.79-2.5,11.83-2.13,2.42.22,4.8.79,7.08,1.57,5.97,2.04,11.78,5.59,18.64,8.13,1.19.44,2.4.83,3.63,1.18,11.03,3.08,23.14,1.57,31.63-3.14,4.61-2.56,8.8-5.49,12.01-9.34,2.03-2.44,3.7-5.14,5.13-7.91,2.29-4.44,3.36-9.38,3.82-14.84.37-4.46.37-9.18.74-13.99.79-10.43,3.67-20.32-1.46-28.63-4.68-7.59-14.48-11.04-20.34-18.05-6.84-8.17-8.31-19.05-9.94-29.14-1.62-10.07-3.51-21.42-12.29-27.67-4.21-3-9.42-4.08-14.29-6.03-7.99-3.18-15.41-7.74-22.97-11.6-8.91-4.53-19.17-9.03-29.87-7.55-25.15,3.49-66.62,25.52-55.03,54.6Z"/>
      <path class="cls-38" d="m123.55,107.57c2.9,6.51,6.95,12.67,10.39,19.06,1.09,2.02,2.09,4.11,2.89,6.26,1.77,4.71,2.54,9.69,2.03,14.47-.79,7.44-4.27,13.94-9.03,19.59-4.62,5.48-10.71,10.34-17.26,15.26-7.1,5.34-13.49,10.12-17.28,16.75-6.01,10.52-3.84,24.83,2.82,34.85,7.45,11.21,20.46,19.47,34.71,21.25,10.8,1.35,22.21-1.16,31.23-6.93,2.88-1.85,5.49-4.07,7.82-6.53,3.65-3.87,6.45-8.52,9.43-12.98,3-4.48,6.45-8.84,10.73-11.41,3.38-2.01,6.9-2.88,10.61-2.95,2.23-.04,4.45.23,6.6.72,5.63,1.26,11.22,3.98,17.55,6.05,1.1.36,2.21.69,3.33.98,10.08,2.65,20.98,2,29.18-1.44,4.7-1.97,9.05-4.36,12.6-7.71,2.25-2.12,4.18-4.53,5.88-7.05,2.75-4.08,4.42-8.71,5.34-13.88.75-4.22,1.03-8.7,1.39-13.27.78-9.85,2.27-19.4-3-27.09-5.26-7.68-15.48-11.19-21.62-18.41-7.18-8.43-8.53-19.8-10-30.37-1.47-10.55-3.26-22.4-12.26-29.06-3.63-2.68-8.07-3.84-12.3-5.6-6.92-2.85-13.53-6.57-20.28-9.62-7.96-3.58-17-6.93-26.32-5.61-25.04,3.54-68.17,25.58-55.21,54.67Z"/>
      <path class="cls-20" d="m125.55,111.12c3.02,6.07,7.21,11.7,10.73,17.63,1.12,1.88,2.15,3.81,3.01,5.81,1.88,4.39,2.81,9.07,2.63,13.65-.28,7.14-2.98,13.72-7.09,19.55-3.97,5.63-9.45,10.66-15.67,15.3-6.72,5.01-13.39,9.2-17.59,15.35-6.72,9.84-5.42,23.7.87,33.58,6.91,10.86,19.57,18.67,33.35,20.07,10.43,1.06,21.35-1.65,29.92-7.38,2.74-1.84,5.22-4.01,7.41-6.42,3.23-3.54,5.76-7.73,8.41-11.77,2.67-4.07,5.65-8.04,9.35-10.67,2.9-2.06,6-3.25,9.4-3.76,2.03-.3,4.09-.32,6.12-.14,5.28.48,10.67,2.36,16.47,3.98,1,.28,2.02.55,3.03.79,9.14,2.22,18.81,2.47,26.72.25,4.79-1.34,9.31-3.23,13.19-6.07,2.46-1.81,4.67-3.92,6.63-6.19,3.22-3.72,5.48-8.05,6.87-12.92,1.13-3.97,1.69-8.22,2.05-12.54.77-9.27.87-18.44-4.55-25.56-5.89-7.74-16.48-11.33-22.9-18.77-7.53-8.7-8.75-20.56-10.07-31.59-1.31-11.03-3.04-23.33-12.23-30.45-3.04-2.36-6.73-3.6-10.32-5.16-5.85-2.53-11.64-5.4-17.58-7.63-7.02-2.63-14.83-4.83-22.76-3.68-24.92,3.61-69.82,25.72-55.39,54.75Z"/>
      <path class="cls-28" d="m127.55,114.67c3.13,5.65,7.46,10.74,11.07,16.19,1.15,1.73,2.21,3.51,3.12,5.37,1.98,4.07,3.07,8.45,3.22,12.84.23,6.83-1.7,13.51-5.15,19.52-3.34,5.77-8.18,10.98-14.07,15.34-6.34,4.69-13.29,8.27-17.91,13.95-7.44,9.15-7,22.56-1.08,32.31,6.38,10.51,18.69,17.86,31.98,18.89,10.06.77,20.5-2.14,28.62-7.83,2.61-1.83,4.95-3.95,7.01-6.31,2.81-3.22,5.07-6.93,7.4-10.56,2.35-3.66,4.86-7.24,7.96-9.93,2.43-2.1,5.1-3.63,8.18-4.57,1.84-.57,3.73-.87,5.64-.99,4.94-.29,10.11.74,15.38,1.91.91.2,1.82.4,2.73.6,8.2,1.79,16.61,3.01,24.27,1.95,4.86-.67,9.57-2.1,13.78-4.44,2.68-1.49,5.15-3.3,7.38-5.33,3.68-3.35,6.54-7.39,8.39-11.97,1.51-3.73,2.35-7.75,2.7-11.81.76-8.69-.52-17.44-6.09-24.02-6.55-7.73-17.48-11.48-24.18-19.12-7.87-8.96-8.97-21.31-10.13-32.82-1.16-11.51-2.89-24.19-12.21-31.84-2.47-2.03-5.39-3.36-8.34-4.72-4.78-2.2-9.75-4.23-14.89-5.65-6.07-1.67-12.66-2.73-19.2-1.75-24.81,3.69-71.57,25.95-55.57,54.82Z"/>
      <path class="cls-22" d="m168.98,237.78c2.47-1.82,4.7-3.89,6.61-6.19,6.71-8.08,10.15-19.02,19.9-23.93,6.63-3.33,14.64-2.95,21.89-1.59,7.25,1.35,14.36,3.58,21.82,3.64,13.24.1,26.5-7.38,32.42-18.28,5.92-10.91,4.17-24.64-4.27-33.57-7.24-7.66-18.47-11.63-25.47-19.48-8.21-9.23-9.19-22.06-10.19-34.05s-2.87-24.91-12.18-33.23c-8.59-7.67-21.99-9.66-34.2-7.78-24.69,3.81-73.42,26.29-55.75,54.9,4.27,6.92,10.68,12.6,14.63,19.68,8.46,15.15,3.22,35.84-11.88,46.88-5.95,4.36-13.19,7.33-18.23,12.55-8.17,8.45-8.57,21.42-3.03,31.04,5.85,10.15,17.8,17.06,30.61,17.7,9.69.49,19.64-2.63,27.31-8.28Z"/>
    </g>
    <g>
      <path class="cls-7" d="m323.29,68.36c-5.42-2.57-11.24-4.42-17.09-5.59-15.57-3.12-37.52,3.41-50.49-6.01-13.05-9.47-14.15-28.5-26.9-38.5-9.99-7.84-24.95-5.11-35.66,1.72-10.71,6.83-18.84,16.99-28.84,24.82-15.05,11.79-33.74,18.05-51.78,23.64-30.92,9.57-60.87,2.13-83.77,31.03-14.42,18.2-19.01,43.74-11.82,65.82,3.98,12.23,12.15,23.95,24.29,28.2,9.15,3.2,19.19,1.78,28.78.34,9.59-1.45,19.64-2.84,28.78.41,18.02,6.41,21.44,30.35,17.7,46.43-3.81,16.38-14.56,29.87-12.87,47.47,3.39,35.23,51.57,34.14,75.98,29.37,19.41-3.79,38.97-9.59,54.64-21.65,15.67-12.06,26.85-31.45,24.64-51.1-1.29-11.48-6.88-21.96-10.89-32.79-4.01-10.84-6.4-23.27-1.39-33.69,6.35-13.2,22.28-18.65,36.85-20.26s29.85-.81,43.15-6.97c23.06-10.68,32.35-43.43,18.33-64.63-5.28-7.98-12.97-13.94-21.66-18.05Z"/>
      <path class="cls-5" d="m32.4,99.45c-7.16,8.12-12.44,18.22-14.89,29.12-2.67,11.98-2.08,24.76,1.86,36.48,3.98,11.84,11.88,23.19,23.61,27.43,8.85,3.2,18.56,2,27.85.75,2.16-.29,4.35-.58,6.54-.82,7.25-.77,14.59-.95,21.42,1.44,17.5,6.12,21.24,28.66,18.18,43.91-1.71,8.42-5.36,16.07-8.03,24.04-2.26,6.72-3.84,13.66-2.98,21.43,1.42,13,9.01,21.01,19.14,25.71,16.3,7.57,39.17,6.54,53.67,4.29,18.78-2.92,38.16-7.8,53.8-19.2.58-.42,1.16-.86,1.72-1.3,14.8-11.51,25.32-29.77,23.47-48.47-1.1-11.18-6.4-21.43-10.19-32.02-3.79-10.59-6.04-22.7-1.23-32.87.64-1.35,1.37-2.61,2.2-3.8,7.08-10.23,20.66-14.83,33.25-16.48,14.06-1.83,28.87-1.36,41.77-7.44,15.69-7.46,25.22-24.92,25.07-42.15-.08-7.73-2.11-15.38-6.35-21.96-5.13-7.97-12.63-14.04-21.16-18.24-5.23-2.58-10.87-4.45-16.55-5.7-15.08-3.29-36.28,2.5-49.04-6.7-12.79-9.22-14.32-27.42-26.83-36.99-9.87-7.52-24.43-4.96-34.91,1.61-10.48,6.57-18.47,16.42-28.13,24.26-9.39,7.67-20.04,13.26-31.21,17.82-6.21,2.54-12.59,4.75-18.94,6.82-19.64,6.39-39.19,5.65-56.68,11.38-9.48,3.11-18.2,8.28-26.45,17.64Z"/>
      <path class="cls-15" d="m36.04,99.43c-7.47,7.6-13.39,17.45-16.07,28.44-2.92,12.04-2.28,25.07,1.85,36.95,3.97,11.45,11.6,22.44,22.93,26.67,8.54,3.19,17.92,2.22,26.92,1.16,2.09-.25,4.21-.49,6.34-.69,7.03-.64,14.16-.75,20.81,1.52,16.99,5.83,21.08,26.98,18.67,41.39-1.33,7.96-4.54,15.23-6.83,22.87-1.94,6.44-3.27,13.12-2.32,20.6,1.54,12.5,8.84,20.34,18.49,25.07,15.54,7.64,37.2,7.12,51.14,5.55,18.16-2.05,37.35-6.01,52.95-16.76.58-.4,1.16-.81,1.73-1.23,14.85-10.89,25.59-28.73,24.03-47.21-.92-10.88-5.93-20.9-9.49-31.25-3.56-10.35-5.68-22.12-1.08-32.05.61-1.31,1.31-2.55,2.1-3.72,6.78-10.05,19.8-14.72,31.95-16.58,13.55-2.06,27.9-1.86,40.4-7.91,15.51-7.5,25.19-24.61,25.2-41.74,0-7.67-1.97-15.27-6.09-21.86-4.98-7.95-12.29-14.14-20.65-18.43-5.04-2.59-10.5-4.48-16.01-5.82-14.59-3.47-35.04,1.59-47.59-7.39-12.52-8.97-14.47-26.37-26.76-35.48-9.74-7.22-23.9-4.8-34.16,1.5-10.25,6.31-18.13,15.83-27.43,23.71-9.12,7.73-19.23,13.64-30.04,18.46-6.01,2.69-12.24,5.02-18.48,7.17-19.22,6.57-38.69,6.04-56.09,11.06-9.43,2.73-17.98,7.39-26.4,15.95Z"/>
      <path class="cls-35" d="m39.67,99.42c-7.81,7.08-14.34,16.68-17.26,27.76-3.17,12.1-2.48,25.38,1.83,37.42,3.96,11.06,11.33,21.69,22.25,25.91,8.24,3.19,17.28,2.44,25.99,1.57,2.03-.2,4.07-.41,6.13-.57,6.82-.51,13.73-.55,20.19,1.61,16.47,5.53,20.91,25.29,19.15,38.88-.97,7.5-3.73,14.39-5.62,21.7-1.62,6.16-2.68,12.58-1.66,19.78,1.69,11.99,8.67,19.67,17.84,24.43,14.78,7.7,35.23,7.7,48.62,6.81,17.56-1.18,36.53-4.22,52.11-14.31.58-.37,1.16-.76,1.73-1.15,14.9-10.27,25.85-27.69,24.58-45.94-.74-10.58-5.45-20.37-8.79-30.47-3.33-10.1-5.32-21.54-.92-31.23.58-1.28,1.26-2.49,2.01-3.64,6.49-9.86,18.94-14.61,30.64-16.68,13.05-2.29,26.92-2.39,39.02-8.38,15.31-7.57,25.15-24.31,25.32-41.33.07-7.6-1.83-15.16-5.83-21.75-4.83-7.94-11.95-14.23-20.15-18.63-4.85-2.6-10.13-4.53-15.48-5.93-14.09-3.69-33.81.68-46.14-8.08-12.26-8.73-14.62-25.31-26.69-33.97-9.62-6.9-23.38-4.65-33.41,1.4-10.03,6.05-17.77,15.26-26.73,23.16-8.85,7.8-18.42,14.03-28.86,19.1-5.81,2.84-11.89,5.31-18.02,7.53-18.79,6.8-38.18,6.43-55.5,10.73-9.38,2.34-17.78,6.5-26.35,14.27Z"/>
      <path class="cls-34" d="m43.3,99.4c-8.17,6.56-15.29,15.92-18.45,27.08-3.42,12.16-2.69,25.7,1.81,37.89,3.94,10.67,11.06,20.94,21.56,25.15,7.93,3.18,16.65,2.66,25.05,1.99,1.96-.16,3.94-.32,5.93-.44,6.6-.39,13.3-.35,19.58,1.7,15.96,5.24,20.73,23.6,19.64,36.36-.6,7.04-2.9,13.55-4.42,20.53-1.28,5.88-2.1,12.04-1.01,18.96,1.82,11.48,8.49,19,17.2,23.79,14.02,7.76,33.28,7.71,46.09,8.06,16.96.47,35.7-2.47,51.26-11.86.58-.35,1.16-.71,1.73-1.08,14.94-9.65,26.12-26.65,25.14-44.68-.56-10.28-4.98-19.84-8.09-29.7-3.11-9.86-4.96-20.96-.77-30.4.56-1.25,1.2-2.43,1.92-3.55,6.19-9.68,18.09-14.51,29.34-16.78,12.54-2.52,25.94-2.92,37.65-8.85,15.11-7.65,25.12-24,25.45-40.92.14-7.53-1.69-15.05-5.58-21.65-4.68-7.93-11.61-14.32-19.65-18.82-4.65-2.6-9.76-4.57-14.94-6.05-13.59-3.88-32.57-.23-44.69-8.77-12-8.48-14.78-24.24-26.62-32.45-9.5-6.59-22.86-4.5-32.66,1.29-9.8,5.79-17.42,14.69-26.02,22.6-8.57,7.88-17.61,14.41-27.68,19.74-5.61,2.99-11.53,5.58-17.57,7.88-18.38,6.99-37.68,6.81-54.92,10.41-9.33,1.96-17.61,5.61-26.3,12.58Z"/>
      <path class="cls-32" d="m46.94,99.38c-8.56,6.04-16.24,15.15-19.64,26.39-3.67,12.22-2.89,26.01,1.8,38.36,3.91,10.29,10.78,20.19,20.88,24.39,7.63,3.18,16.01,2.88,24.12,2.4,1.89-.11,3.8-.23,5.72-.31,6.39-.26,12.87-.16,18.97,1.78,15.44,4.95,20.55,21.91,20.12,33.84-.24,6.58-2.08,12.71-3.22,19.36-.96,5.6-1.53,11.5-.35,18.13,1.95,10.97,8.32,18.34,16.55,23.15,13.26,7.82,31.33,8.88,43.56,9.32,16.38.59,34.89-.68,50.41-9.42.58-.33,1.16-.66,1.73-1.01,14.99-9.03,26.38-25.6,25.7-43.42-.38-9.97-4.5-19.31-7.38-28.92-2.88-9.61-4.6-20.38-.61-29.58.53-1.22,1.14-2.37,1.82-3.47,5.9-9.49,17.23-14.4,28.03-16.89,12.04-2.75,24.96-3.45,36.28-9.32,14.91-7.72,25.08-23.7,25.58-40.51.21-7.47-1.55-14.94-5.32-21.54-4.54-7.91-11.27-14.41-19.14-19.01-4.46-2.61-9.39-4.61-14.4-6.16-13.1-4.07-31.33-1.14-43.24-9.46-11.74-8.23-14.95-23.18-26.55-30.94-9.38-6.28-22.34-4.35-31.92,1.19-9.57,5.53-17.06,14.12-25.32,22.05-8.29,7.97-16.8,14.8-26.5,20.39-5.41,3.14-11.18,5.86-17.11,8.23-17.96,7.19-37.18,7.2-54.33,10.08-9.28,1.57-17.47,4.7-26.24,10.89Z"/>
      <path class="cls-11" d="m50.57,99.36c-8.97,5.52-17.18,14.39-20.83,25.71-3.92,12.28-3.11,26.32,1.78,38.83,3.87,9.91,10.51,19.44,20.2,23.63,7.32,3.17,15.37,3.1,23.19,2.81,1.82-.07,3.66-.15,5.52-.19,6.17-.14,12.44.04,18.36,1.87,14.92,4.66,20.37,20.21,20.6,31.32.13,6.11-1.26,11.87-2.02,18.19-.64,5.32-.95,10.96.31,17.31,2.07,10.47,8.16,17.65,15.9,22.51,12.52,7.86,29.39,9.49,41.03,10.58,15.8,1.49,34.07,1.1,49.57-6.97.58-.3,1.16-.61,1.73-.94,15.02-8.44,26.63-24.55,26.25-42.16-.21-9.67-4.03-18.78-6.68-28.15-2.66-9.36-4.24-19.8-.45-28.76.5-1.19,1.08-2.32,1.73-3.39,5.6-9.31,16.38-14.29,26.73-16.99,11.53-2.98,23.98-3.99,34.9-9.78,14.71-7.8,25.05-23.39,25.71-40.11.28-7.4-1.41-14.83-5.06-21.43-4.39-7.9-10.93-14.5-18.64-19.2-4.27-2.61-9.02-4.64-13.86-6.27-12.61-4.25-30.1-2.04-41.79-10.15-11.47-7.98-15.11-22.11-26.48-29.43-9.26-5.96-21.82-4.19-31.17,1.08-9.34,5.27-16.7,13.55-24.61,21.5-8.02,8.05-16,15.18-25.32,21.03-5.21,3.29-10.83,6.14-16.66,8.59-17.54,7.38-36.68,7.59-53.75,9.76-9.23,1.19-17.36,3.77-26.19,9.21Z"/>
      <path class="cls-26" d="m54.21,99.35c-9.41,4.98-18.13,13.62-22.02,25.03-4.17,12.35-3.33,26.64,1.77,39.3,3.83,9.53,10.23,18.68,19.52,22.87,7.02,3.17,14.73,3.32,22.26,3.22,1.75-.02,3.53-.06,5.31-.06,5.96-.02,12.01.24,17.75,1.95,14.41,4.37,20.19,18.51,21.09,28.8.49,5.65-.45,11.02-.82,17.02-.31,5.03-.37,10.42.97,16.48,2.2,9.96,7.99,16.98,15.25,21.87,11.77,7.92,27.45,10.1,38.51,11.84,15.24,2.4,33.26,2.89,48.72-4.52.58-.28,1.16-.57,1.73-.86,15.06-7.83,26.88-23.51,26.81-40.89-.04-9.36-3.55-18.26-5.98-27.38-2.43-9.12-3.89-19.22-.3-27.94.47-1.16,1.02-2.26,1.64-3.31,5.31-9.13,15.52-14.18,25.42-17.09,11.03-3.21,22.99-4.53,33.53-10.25,14.51-7.89,25.01-23.08,25.84-39.7.35-7.33-1.27-14.72-4.81-21.33-4.24-7.89-10.59-14.58-18.13-19.39-4.08-2.61-8.65-4.68-13.32-6.39-12.11-4.44-28.86-2.95-40.34-10.84-11.21-7.74-15.27-21.04-26.41-27.92-9.15-5.65-21.3-4.04-30.42.98-9.11,5.02-16.34,12.98-23.91,20.94-7.74,8.13-15.19,15.57-24.15,21.67-5,3.44-10.48,6.41-16.2,8.94-17.12,7.57-36.18,7.98-53.16,9.43-9.18.8-17.28,2.83-26.14,7.52Z"/>
      <path class="cls-33" d="m57.84,99.33c-9.86,4.42-19.08,12.85-23.21,24.35-4.42,12.41-3.55,26.96,1.75,39.77,3.79,9.15,9.96,17.93,18.84,22.11,6.71,3.16,14.1,3.54,21.33,3.63,1.69.02,3.39.03,5.1.06,5.74.11,11.58.42,17.14,2.04,13.9,4.05,20,16.8,21.57,26.28.86,5.18.37,10.18.38,15.84.01,4.75.2,9.88,1.63,15.66,2.33,9.45,7.82,16.31,14.61,21.23,11.01,7.98,25.52,10.73,35.98,13.1,14.68,3.33,32.45,4.67,47.88-2.07.58-.25,1.16-.52,1.73-.79,15.11-7.21,27.12-22.46,27.37-39.63.13-9.06-3.08-17.73-5.28-26.6-2.2-8.87-3.53-18.64-.14-27.12.45-1.12.96-2.2,1.54-3.22,5.01-8.94,14.66-14.08,24.12-17.19,10.52-3.44,22.01-5.07,32.15-10.72,14.3-7.97,24.98-22.78,25.97-39.29.42-7.27-1.13-14.6-4.55-21.22-4.09-7.87-10.26-14.66-17.63-19.58-3.89-2.6-8.28-4.71-12.78-6.5-11.62-4.62-27.62-3.86-38.89-11.53-10.95-7.49-15.44-19.97-26.34-26.41-9.03-5.33-20.77-3.89-29.67.87-8.89,4.76-15.98,12.41-23.21,20.39-7.46,8.22-14.38,15.95-22.97,22.32-4.8,3.59-10.13,6.69-15.74,9.29-16.71,7.75-35.68,8.37-52.58,9.11-9.13.42-17.22,1.86-26.09,5.83Z"/>
      <path class="cls-21" d="m61.47,99.31c-10.34,3.84-20.03,12.09-24.4,23.67-4.67,12.47-3.78,27.28,1.74,40.24,3.74,8.77,9.68,17.18,18.16,21.35,6.41,3.16,13.46,3.76,20.39,4.04,1.62.07,3.25.12,4.9.19,5.53.24,11.15.62,16.52,2.13,13.38,3.76,19.82,15.09,22.06,23.76,1.22,4.71,1.19,9.33,1.58,14.67.33,4.47.78,9.33,2.28,14.84,2.45,8.94,7.65,15.65,13.96,20.59,10.26,8.04,23.59,11.37,33.45,14.36,14.13,4.28,31.63,6.46,47.03.37.58-.23,1.16-.47,1.74-.72,15.15-6.59,27.36-21.41,27.92-38.37.29-8.75-2.6-17.2-4.58-25.83-1.98-8.63-3.17-18.06.01-26.3.42-1.09.91-2.14,1.45-3.14,4.72-8.76,13.81-13.97,22.81-17.29,10.02-3.67,21.02-5.62,30.78-11.19,14.1-8.06,24.94-22.47,26.1-38.88.49-7.2-.99-14.49-4.29-21.11-3.95-7.86-9.92-14.73-17.12-19.77-3.71-2.6-7.91-4.75-12.24-6.62-11.13-4.8-26.39-4.77-37.44-12.23-10.69-7.24-15.6-18.9-26.27-24.9-8.92-5.01-20.25-3.74-28.92.77-8.66,4.5-15.61,11.85-22.5,19.83-7.17,8.31-13.58,16.32-21.79,22.96-4.61,3.73-9.77,6.96-15.29,9.65-16.29,7.94-35.18,8.76-51.99,8.78-9.08.03-17.18.86-26.03,4.15Z"/>
      <path class="cls-31" d="m65.11,99.29c-10.83,3.22-20.98,11.32-25.59,22.98-4.91,12.53-4.02,27.6,1.72,40.71,3.68,8.4,9.41,16.43,17.48,20.59,6.1,3.15,12.82,3.98,19.46,4.46,1.55.11,3.12.21,4.69.31,5.31.37,10.73.82,15.91,2.21,12.86,3.47,19.62,13.38,22.54,21.24,1.57,4.23,2,8.49,2.79,13.5.65,4.18,1.35,8.79,2.94,14.01,2.57,8.43,7.48,14.98,13.31,19.96,9.5,8.1,21.66,12.04,30.93,15.62,13.57,5.25,30.82,8.25,46.18,2.82.58-.21,1.16-.42,1.74-.65,15.2-5.97,27.58-20.36,28.48-37.11.45-8.44-2.13-16.67-3.88-25.05-1.75-8.38-2.81-17.49.17-25.48.39-1.06.85-2.08,1.36-3.06,4.42-8.57,12.95-13.86,21.51-17.4,9.51-3.9,20.04-6.16,29.4-11.66,13.89-8.15,24.91-22.16,26.23-38.47.56-7.14-.85-14.38-4.04-21.01-3.8-7.85-9.59-14.8-16.62-19.96-3.52-2.59-7.54-4.78-11.71-6.73-10.64-4.98-25.15-5.68-35.99-12.92-10.42-6.99-15.77-17.83-26.21-23.38-8.8-4.69-19.73-3.58-28.17.66-8.43,4.24-15.25,11.29-21.8,19.28-6.89,8.4-12.77,16.71-20.61,23.6-4.41,3.88-9.42,7.23-14.83,10-15.88,8.12-34.67,9.15-51.41,8.46-9.03-.35-17.15-.17-25.98,2.46Z"/>
      <path class="cls-25" d="m68.74,99.28c-11.32,2.56-21.92,10.55-26.78,22.3-5.16,12.59-4.26,27.93,1.71,41.18,3.62,8.03,9.13,15.68,16.8,19.83,5.8,3.15,12.19,4.2,18.53,4.87,1.48.16,2.98.29,4.49.44,5.09.5,10.3,1.01,15.3,2.3,12.35,3.17,19.42,11.67,23.02,18.72,1.92,3.76,2.81,7.64,3.99,12.33.97,3.9,1.92,8.25,3.6,13.19,2.69,7.93,7.31,14.31,12.66,19.32,8.74,8.17,19.73,12.72,28.4,16.88,13.01,6.24,30.01,10.04,45.34,5.27.58-.18,1.16-.37,1.74-.57,15.25-5.35,27.81-19.31,29.03-35.84.6-8.14-1.66-16.14-3.18-24.28-1.53-8.14-2.45-16.91.32-24.66.37-1.03.79-2.02,1.26-2.97,4.13-8.39,12.09-13.75,20.2-17.5,9-4.13,19.05-6.71,28.03-12.13,13.68-8.25,24.87-21.86,26.36-38.06.63-7.07-.71-14.27-3.78-20.9-3.65-7.83-9.26-14.87-16.12-20.15-3.34-2.58-7.17-4.81-11.17-6.85-10.15-5.16-23.91-6.58-34.54-13.61-10.16-6.75-15.94-16.75-26.14-21.87-8.69-4.37-19.21-3.43-27.43.56-8.2,3.98-14.88,10.73-21.09,18.73-6.6,8.49-11.95,17.11-19.43,24.25-4.2,4.03-9.07,7.51-14.38,10.35-15.46,8.3-34.17,9.53-50.82,8.14-8.98-.74-17.12-1.22-25.93.77Z"/>
      <path class="cls-8" d="m72.38,99.26c-11.82,1.87-22.87,9.79-27.97,21.62-5.41,12.65-4.52,28.26,1.69,41.65,3.55,7.66,8.86,14.93,16.12,19.06,5.5,3.14,11.55,4.42,17.6,5.28,1.41.2,2.84.38,4.28.57,4.88.63,9.87,1.21,14.69,2.38,11.83,2.88,19.2,9.96,23.51,16.2,2.27,3.29,3.63,6.79,5.19,11.16,1.29,3.61,2.49,7.71,4.26,12.36,2.81,7.42,7.13,13.64,12.02,18.68,7.99,8.23,17.78,13.41,25.87,18.14,12.43,7.27,29.2,11.83,44.49,7.71.58-.16,1.16-.32,1.74-.5,15.3-4.73,28.02-18.26,29.59-34.58.75-7.83-1.18-15.61-2.48-23.51-1.3-7.89-2.09-16.33.48-23.84.34-1,.73-1.96,1.17-2.89,3.84-8.2,11.24-13.65,18.9-17.6,8.5-4.36,18.06-7.27,26.65-12.6,13.47-8.35,24.84-21.55,26.49-37.65.7-7-.57-14.16-3.52-20.8-3.5-7.82-8.94-14.93-15.61-20.34-3.15-2.56-6.8-4.85-10.63-6.96-9.65-5.33-22.68-7.49-33.09-14.3-9.9-6.5-16.11-15.67-26.07-20.36-8.58-4.04-18.69-3.28-26.68.45-7.98,3.72-14.51,10.17-20.39,18.17-6.31,8.59-11.14,17.49-18.26,24.89-3.99,4.18-8.72,7.78-13.92,10.71-15.05,8.48-33.67,9.92-50.24,7.81-8.93-1.12-17.09-2.3-25.88-.91Z"/>
      <path class="cls-2" d="m76.01,99.24c-12.31,1.13-23.82,9.02-29.16,20.94-5.66,12.71-4.78,28.59,1.68,42.12,3.48,7.29,8.59,14.17,15.44,18.3,5.19,3.14,10.91,4.64,16.67,5.69,1.35.25,2.71.47,4.08.69,4.66.75,9.44,1.41,14.08,2.47,11.31,2.59,18.97,8.25,23.99,13.68,2.61,2.82,4.44,5.95,6.39,9.99,1.61,3.33,3.06,7.17,4.91,11.54,2.93,6.91,6.96,12.98,11.37,18.04,7.23,8.3,15.82,14.12,23.34,19.4,11.84,8.31,28.39,13.63,43.65,10.16.58-.13,1.16-.27,1.74-.43,15.34-4.11,28.22-17.21,30.15-33.32.9-7.53-.71-15.08-1.78-22.73-1.08-7.65-1.74-15.75.63-23.02.31-.96.67-1.9,1.08-2.81,3.54-8.02,10.38-13.54,17.59-17.7,7.99-4.59,17.07-7.83,25.28-13.07,13.25-8.46,24.8-21.24,26.62-37.25.77-6.94-.43-14.05-3.27-20.69-3.36-7.81-8.62-14.98-15.11-20.54-2.97-2.55-6.43-4.88-10.09-7.07-9.17-5.51-21.44-8.4-31.64-14.99-9.63-6.25-16.29-14.59-26-18.85-8.47-3.71-18.16-3.13-25.93.34-7.75,3.47-14.13,9.62-19.69,17.62-6.02,8.68-10.33,17.88-17.08,25.53-3.79,4.33-8.37,8.05-13.47,11.06-14.64,8.65-33.17,10.31-49.65,7.49-8.88-1.51-17.05-3.41-25.82-2.6Z"/>
      <path class="cls-23" d="m79.64,99.22c-12.78.35-24.77,8.25-30.35,20.25-5.91,12.77-5.05,28.94,1.66,42.59,3.41,6.93,8.31,13.42,14.75,17.54,4.89,3.13,10.27,4.86,15.73,6.1,1.28.29,2.57.56,3.87.82,4.45.89,9.01,1.6,13.47,2.56,10.8,2.31,18.74,6.56,24.48,11.16,2.94,2.36,5.24,5.11,7.59,8.81,1.93,3.04,3.63,6.63,5.57,10.72,3.05,6.41,6.79,12.31,10.72,17.4,6.47,8.37,13.85,14.84,20.82,20.66,11.21,9.37,27.58,15.42,42.8,12.61.58-.11,1.16-.23,1.74-.36,15.4-3.46,28.41-16.16,30.7-32.05,1.04-7.22-.23-14.55-1.08-21.96-.85-7.4-1.38-15.17.79-22.2.29-.93.62-1.84.98-2.72,3.25-7.84,9.53-13.43,16.29-17.81,7.49-4.82,16.07-8.38,23.9-13.54,13.03-8.57,24.77-20.94,26.75-36.84.84-6.87-.29-13.94-3.01-20.58-3.21-7.8-8.3-15.03-14.6-20.73-2.8-2.53-6.07-4.91-9.55-7.19-8.68-5.68-20.2-9.31-30.18-15.68-9.37-6.01-16.46-13.5-25.93-17.34-8.36-3.38-17.64-2.97-25.18.24-7.52,3.21-13.76,9.06-18.98,17.06-5.73,8.78-9.52,18.27-15.9,26.18-3.59,4.48-8.02,8.32-13.01,11.41-14.23,8.82-32.67,10.7-49.07,7.16-8.83-1.89-17-4.53-25.77-4.29Z"/>
      <path class="cls-19" d="m83.28,99.21c-13.24-.46-25.71,7.49-31.54,19.57-6.16,12.83-5.34,29.28,1.65,43.06,3.33,6.56,8.04,12.67,14.07,16.78,4.58,3.13,9.64,5.07,14.8,6.51,1.21.34,2.43.65,3.67.94,4.23,1.02,8.58,1.8,12.85,2.64,10.28,2.02,18.5,4.89,24.96,8.64,3.28,1.9,6.05,4.26,8.79,7.64,2.24,2.76,4.2,6.1,6.23,9.89,3.16,5.9,6.61,11.65,10.07,16.76,5.71,8.43,11.86,15.56,18.29,21.91,10.56,10.44,26.77,17.22,41.96,15.06.58-.08,1.16-.18,1.74-.29,15.44-2.84,28.59-15.12,31.26-30.79,1.18-6.92.24-14.03-.38-21.18-.62-7.16-1.02-14.59.94-21.38.26-.9.56-1.78.89-2.64,2.95-7.65,8.67-13.32,14.98-17.91,6.98-5.05,15.07-8.95,22.53-14.01,12.81-8.69,24.73-20.63,26.88-36.43.91-6.8-.15-13.83-2.76-20.48-3.06-7.78-7.99-15.08-14.1-20.92-2.62-2.51-5.7-4.94-9.01-7.3-8.19-5.85-18.97-10.22-28.73-16.37-9.11-5.76-16.63-12.41-25.86-15.83-8.25-3.05-17.12-2.82-24.43.13-7.29,2.95-13.38,8.51-18.28,16.51-5.43,8.88-8.71,18.65-14.72,26.82-3.39,4.63-7.67,8.59-12.55,11.77-13.82,9-32.17,11.09-48.48,6.84-8.78-2.28-16.94-5.67-25.72-5.97Z"/>
      <path class="cls-10" d="m86.91,99.19c-13.67-1.3-26.66,6.72-32.73,18.89-6.41,12.89-5.64,29.64,1.63,43.53,3.25,6.2,7.76,11.92,13.39,16.02,4.28,3.12,9,5.29,13.87,6.93,1.14.38,2.3.74,3.46,1.07,4.02,1.15,8.15,2.01,12.24,2.73,9.76,1.75,18.27,3.23,25.44,6.13,3.61,1.46,6.86,3.42,9.99,6.47,2.56,2.48,4.76,5.56,6.89,9.07,3.27,5.4,6.44,10.98,9.43,16.12,4.94,8.5,9.85,16.28,15.76,23.17,9.88,11.52,25.96,19.04,41.11,17.5.58-.06,1.17-.13,1.75-.21,15.49-2.22,28.76-14.08,31.81-29.53,1.31-6.62.72-13.5.32-20.41-.4-6.91-.66-14.01,1.1-20.56.23-.87.5-1.72.8-2.56,2.66-7.47,7.81-13.22,13.68-18.01,6.48-5.28,14.07-9.51,21.16-14.48,12.58-8.82,24.7-20.32,27.01-36.02.98-6.74-.01-13.72-2.5-20.37-2.91-7.77-7.69-15.11-13.59-21.11-2.45-2.49-5.33-4.97-8.47-7.42-7.71-6.01-17.73-11.13-27.28-17.06-8.85-5.51-16.81-11.32-25.79-14.31-8.14-2.71-16.6-2.67-23.68.03-7.07,2.69-13,7.95-17.57,15.96-5.13,8.98-7.9,19.04-13.54,27.46-3.19,4.78-7.32,8.86-12.1,12.12-13.42,9.17-31.67,11.48-47.89,6.51-8.73-2.66-16.86-6.82-25.67-7.66Z"/>
      <path class="cls-14" d="m90.55,99.17c-14.08-2.17-27.61,5.96-33.92,18.21-6.66,12.95-5.95,30.01,1.62,44,3.16,5.85,7.49,11.17,12.71,15.26,3.97,3.11,8.36,5.51,12.94,7.34,1.07.43,2.16.83,3.26,1.19,3.8,1.29,7.72,2.21,11.63,2.81,9.24,1.46,18.04,1.58,25.93,3.61,3.96,1.02,7.67,2.59,11.2,5.3,2.87,2.21,5.33,5.02,7.55,8.25,3.38,4.9,6.26,10.32,8.78,15.48,4.17,8.57,7.82,17,13.24,24.43,9.16,12.59,25.15,20.83,40.26,19.95.58-.03,1.17-.08,1.75-.14,15.54-1.6,28.91-13.05,32.37-28.27,1.44-6.32,1.19-12.97,1.02-19.64-.17-6.67-.3-13.43,1.25-19.74.21-.84.44-1.66.71-2.48,2.36-7.28,6.96-13.11,12.37-18.11,5.97-5.51,13.07-10.08,19.78-14.94,12.34-8.95,24.66-20.02,27.14-35.61,1.05-6.67.13-13.61-2.24-20.27-2.77-7.76-7.4-15.15-13.09-21.3-2.28-2.46-4.97-4.99-7.94-7.53-7.23-6.18-16.49-12.03-25.83-17.75-8.58-5.26-16.98-10.22-25.72-12.8-8.03-2.37-16.08-2.52-22.94-.08-6.84,2.43-12.62,7.4-16.87,15.4-4.82,9.08-7.1,19.42-12.37,28.11-2.99,4.93-6.98,9.12-11.64,12.47-13.02,9.32-31.17,11.87-47.31,6.19-8.67-3.05-16.76-7.98-25.61-9.35Z"/>
      <path class="cls-29" d="m87.76,184.72c3.58,1.41,7.29,2.4,11.02,2.9,13.1,1.75,27.06-1.9,38.81,5.22,7.98,4.83,12.93,13.63,16.33,22.27,3.41,8.64,5.78,17.7,10.71,25.69,8.75,14.18,25.58,23.31,41.17,22.33,15.58-.98,29.05-12.03,32.93-27,3.33-12.85.04-27.47,3.74-40.17,4.34-14.92,17.37-24.54,29.47-33.63,12.1-9.09,24.63-19.71,27.27-35.2,2.43-14.28-4.41-29.9-14.57-41.65-20.57-23.77-77.11-60.67-95.79-22.71-4.52,9.18-6.29,19.81-11.19,28.75-10.49,19.14-36.05,27.39-57.91,18.69-8.62-3.43-16.63-9.15-25.56-11.03-14.47-3.05-28.56,5.19-35.11,17.53-6.91,13.02-6.28,30.38,1.6,44.47,5.97,10.66,15.94,19.17,27.09,23.57Z"/>
    </g>
    <path class="cls-40" d="m72.97,110.89c-12.08,9.14-29.33,6.74-38.47-5.33-9.14-12.08-6.74-29.33,5.33-38.47,12.08-9.14,29.33-6.74,38.47,5.33s6.74,29.33-5.33,38.47Zm-28.65-37.87c-8.8,6.66-10.55,19.24-3.89,28.04,6.66,8.8,19.24,10.55,28.04,3.89,8.8-6.66,10.55-19.24,3.89-28.04-6.66-8.8-19.24-10.55-28.04-3.89Z"/>
    <path class="cls-41" d="m91.93,122.39c2.78,3.68,2.06,8.92-1.62,11.7s-8.92,2.06-11.7-1.62c-2.78-3.68-2.06-8.92,1.62-11.7s8.92-2.06,11.7,1.62Z"/>
    <circle class="cls-39" cx="243.84" cy="93.09" r="10.21"/>
  </g>
</svg>